<svg width="16" height="16" viewBox="0 0 16 16" fill="none" xmlns="http://www.w3.org/2000/svg">
<path d="M15.221 8.06776C15.2233 9.43092 14.8066 10.7636 14.0245 11.8945C13.3795 12.8306 12.5073 13.5976 11.4852 14.1277C10.4631 14.6579 9.32248 14.9348 8.16422 14.934C7.00595 14.9348 5.86533 14.6579 4.84322 14.1277C3.8211 13.5976 2.94897 12.8306 2.30394 11.8945C1.68979 11.0038 1.29866 9.9854 1.16192 8.92104C1.02518 7.85668 1.14662 6.77596 1.51652 5.7655C1.88641 4.75505 2.49447 3.84297 3.29194 3.10238C4.08942 2.36179 5.05413 1.81329 6.10873 1.50085C7.16334 1.18842 8.27851 1.12074 9.36485 1.30323C10.4512 1.48573 11.4785 1.91333 12.3643 2.55175C13.2502 3.19018 13.9701 4.02167 14.4661 4.97956C14.9622 5.93746 15.2208 6.99512 15.221 8.06776Z" stroke="white" stroke-width="0.995657"/>
<path d="M9.34047 5.77838C9.34047 6.08189 9.21656 6.37296 8.99599 6.58757C8.77542 6.80218 8.47627 6.92275 8.16434 6.92275V7.68567C8.42176 7.68567 8.67666 7.63633 8.91448 7.54048C9.15231 7.44463 9.3684 7.30414 9.55042 7.12704C9.73244 6.94993 9.87683 6.73967 9.97534 6.50827C10.0739 6.27686 10.1246 6.02885 10.1246 5.77838H9.34047ZM8.16434 6.92275C7.85241 6.92275 7.55325 6.80218 7.33268 6.58757C7.11212 6.37296 6.9882 6.08189 6.9882 5.77838H6.20412C6.20412 6.02885 6.25482 6.27686 6.35333 6.50827C6.45184 6.73967 6.59623 6.94993 6.77825 7.12704C7.14586 7.48472 7.64445 7.68567 8.16434 7.68567V6.92275ZM6.9882 5.77838C6.9882 5.47487 7.11212 5.1838 7.33268 4.96919C7.55325 4.75458 7.85241 4.63401 8.16434 4.63401V3.87109C7.64445 3.87109 7.14586 4.07204 6.77825 4.42972C6.41064 4.78741 6.20412 5.27254 6.20412 5.77838H6.9882ZM8.16434 4.63401C8.47627 4.63401 8.77542 4.75458 8.99599 4.96919C9.21656 5.1838 9.34047 5.47487 9.34047 5.77838H10.1246C10.1246 5.27254 9.91803 4.78741 9.55042 4.42972C9.18281 4.07204 8.68422 3.87109 8.16434 3.87109V4.63401ZM2.80588 12.5348L2.42952 12.4264L2.36914 12.6255L2.50792 12.7835L2.80588 12.5348ZM13.5228 12.5348L13.8207 12.7835L13.9595 12.6255L13.8984 12.4264L13.5228 12.5348ZM5.81207 10.7373H10.5166V9.97441H5.81207V10.7373ZM5.81207 9.97441C5.05224 9.97455 4.31273 10.2132 3.70346 10.655C3.09419 11.0968 2.6469 11.718 2.42952 12.4264L3.18146 12.6438C3.35071 12.0929 3.6981 11.6099 4.17203 11.2664C4.64596 10.9229 5.22112 10.7374 5.81207 10.7373V9.97441ZM8.16434 14.5519C7.20247 14.5529 6.25183 14.3508 5.37802 13.9596C4.50421 13.5684 3.72803 12.9974 3.10305 12.286L2.50792 12.7835C3.20659 13.5782 4.07409 14.2161 5.05062 14.6531C6.02715 15.0901 7.08947 15.3159 8.16434 15.3148V14.5519ZM10.5166 10.7373C11.1076 10.7374 11.6829 10.9231 12.1568 11.2667C12.6308 11.6103 12.9781 12.0936 13.1472 12.6446L13.8984 12.4264C13.681 11.718 13.2345 11.0968 12.6252 10.655C12.0159 10.2132 11.2764 9.97455 10.5166 9.97441V10.7373ZM13.2256 12.286C12.6006 12.9974 11.8245 13.5684 10.9507 13.9596C10.0768 14.3508 9.1262 14.5529 8.16434 14.5519V15.3148C9.2392 15.3159 10.3015 15.0901 11.2781 14.6531C12.2546 14.2161 13.1221 13.5782 13.8207 12.7835L13.2256 12.286Z" fill="white"/>
</svg>
