<?xml version="1.0" encoding="UTF-8"?>
<svg version="1.1" xmlns="http://www.w3.org/2000/svg" width="4310" height="4310">
<path d="M0 0 C237.6 0 475.2 0 720 0 C721.98 9.24 723.96 18.48 726 28 C749.94405002 115.39578256 804.49186618 187.68131869 883.34326172 232.65356445 C901.05879954 242.62210858 919.21568777 250.19848383 938.36889648 256.99780273 C941 258 941 258 945 260 C945 717.05 945 1174.1 945 1645 C803.615625 1645.0825 662.23125 1645.165 516.5625 1645.25 C449.52589233 1645.30462402 449.52589233 1645.30462402 381.13500977 1645.36035156 C326.68542481 1645.37841797 326.68542481 1645.37841797 301.21910095 1645.3817749 C282.20498457 1645.38575729 263.19092494 1645.40301939 244.17682448 1645.42669371 C224.78797886 1645.45050843 205.39916909 1645.45934589 186.01030939 1645.4537798 C174.48245772 1645.45091006 162.95473945 1645.45886408 151.42691247 1645.48323038 C143.81136658 1645.49823498 136.19590924 1645.49867639 128.58035724 1645.48734136 C124.24528503 1645.48130255 119.91046873 1645.48151131 115.57542408 1645.49953032 C82.45355411 1645.62904662 82.45355411 1645.62904662 69 1641 C68.02656941 1640.67133841 68.02656941 1640.67133841 67.03347356 1640.33603719 C41.23915643 1631.55462665 21.18135249 1613.29152125 8.91552734 1588.98925781 C2.8945623 1575.90690496 -0.32030385 1562.13065451 -0.24839699 1547.76166141 C-0.25095317 1546.66626835 -0.25350934 1545.57087529 -0.25614297 1544.44228851 C-0.26227213 1540.76881349 -0.25414279 1537.09551025 -0.24609566 1533.42204094 C-0.24757507 1530.7516191 -0.24984941 1528.08120857 -0.25308865 1525.41078937 C-0.25855163 1519.58504458 -0.25658134 1513.75933894 -0.24976636 1507.93359612 C-0.23960424 1499.21238778 -0.24102314 1490.49120734 -0.24469952 1481.76999522 C-0.25063008 1466.90655025 -0.24708704 1452.04312098 -0.23841095 1437.17967796 C-0.22965678 1422.11614108 -0.22526554 1407.05261231 -0.22621536 1391.9890728 C-0.22627275 1391.03788811 -0.22633013 1390.08670342 -0.22638925 1389.10669495 C-0.226702 1384.25665942 -0.2270859 1379.40662391 -0.22749493 1374.55658839 C-0.23031048 1339.44514101 -0.22344633 1304.33370086 -0.21146011 1269.22225571 C-0.19961736 1234.44799641 -0.19191037 1199.67374021 -0.18975449 1164.89947891 C-0.18968566 1163.81973709 -0.18961684 1162.73999526 -0.18954593 1161.62753399 C-0.18891954 1151.76583287 -0.18834415 1141.90413174 -0.18782998 1132.04243061 C-0.18655115 1107.52676178 -0.18463248 1083.01109302 -0.18227959 1058.49542427 C-0.18217295 1057.37900427 -0.18206632 1056.26258426 -0.18195645 1055.11233335 C-0.17671273 1000.7978695 -0.16409734 946.4834077 -0.15087891 892.16894531 C-0.14629561 873.3193563 -0.14174489 854.46976728 -0.1373291 835.62017822 C-0.1370552 834.45113333 -0.1367813 833.28208843 -0.13649911 832.07761793 C-0.12381357 777.7429613 -0.11638216 723.40830433 -0.11026346 669.07364661 C-0.10986232 665.51884591 -0.10945773 661.96404521 -0.10905199 658.40924451 C-0.10482521 621.36328258 -0.10085104 584.31732063 -0.09698644 547.27135867 C-0.09687601 546.21296753 -0.09676559 545.15457639 -0.09665181 544.06411279 C-0.09645104 542.13833069 -0.09625056 540.21254858 -0.0960505 538.28676648 C-0.07735758 358.85784049 -0.03703214 179.4289249 0 0 Z " fill="#FFFFEF" transform="translate(535,1710)"/>
<path d="M0 0 C273.57 0 547.14 0 829 0 C825.15816134 1.92091933 821.3201974 3.32897553 817.265625 4.6953125 C815.66277406 5.2429782 814.06016469 5.7913513 812.45776367 6.34033203 C811.1867128 6.77517914 811.1867128 6.77517914 809.88998413 7.21881104 C778.64821345 17.94271937 747.98790951 30.14360452 718 44 C716.67583021 44.60899318 715.35160927 45.21787515 714.02734375 45.82666016 C686.04299345 58.71217262 658.63740398 72.49105311 632 88 C630.92508301 88.62519531 629.85016602 89.25039062 628.74267578 89.89453125 C599.98090966 106.67257287 572.15775599 124.74021816 545 144 C544.22624023 144.5480127 543.45248047 145.09602539 542.65527344 145.66064453 C531.9118387 153.28834563 521.43237293 161.20998513 511.08251953 169.36279297 C509.13207934 170.89616365 507.17507436 172.42058235 505.21484375 173.94140625 C498.36560408 179.26599601 491.68036893 184.74612454 485.0859375 190.3828125 C482.24394435 192.80691756 479.34709935 195.15731399 476.4375 197.5 C471.36392507 201.62690206 466.56258858 206.00102558 461.76953125 210.4453125 C459.54081607 212.50113722 457.29232081 214.51616957 455 216.5 C450.12433626 220.73491943 445.37871423 225.11049386 440.63623047 229.49316406 C439.0567059 230.94777845 437.46856434 232.39241501 435.87890625 233.8359375 C426.84147195 242.1005301 418.16641765 250.72547187 409.5 259.375 C408.88568115 259.98673065 408.2713623 260.5984613 407.63842773 261.22872925 C398.84924813 269.98178869 398.84924813 269.98178869 390.55273438 279.19775391 C387.05034363 283.26295021 383.29483043 287.10525117 379.60546875 291 C375.29100205 295.57351335 371.10946909 300.2417318 367 305 C366.28336182 305.82540283 366.28336182 305.82540283 365.55224609 306.66748047 C353.83219178 320.1854739 342.45030438 333.98091154 331.47314453 348.10888672 C329.84120869 350.20384446 328.20016315 352.29148969 326.55859375 354.37890625 C319.90774197 362.85428013 313.42224889 371.40289194 307.24511719 380.22949219 C305.9581865 382.05945715 304.65653615 383.87817685 303.3515625 385.6953125 C284.57082958 411.93011897 267.2308138 439.12402984 251 467 C250.51595703 467.82628906 250.03191406 468.65257813 249.53320312 469.50390625 C207.40583264 541.50761493 174.5786551 619.12178894 111 976 C110.98340332 977.0509082 110.96680664 978.10181641 110.94970703 979.18457031 C110.85914581 985.79218539 110.8956538 992.39275811 111 999 C111.01788574 1000.23395508 111.03577148 1001.46791016 111.05419922 1002.73925781 C112.52129413 1096.1421681 126.02892677 1189.70549971 159.30462646 1300.85778809 C160.01870113 1303.05761188 160.72606106 1305.25950827 161.43212891 1307.46191406 C175.13512525 1350.1248245 191.76174252 1391.53585175 211 1432 C211.84813144 1433.79814641 212.69626226 1435.59629311 213.54429626 1437.39448547 C229.94641896 1472.11711973 248.54930752 1505.73810349 269.17529297 1538.12841797 C271.00446968 1541.00703403 272.81825346 1543.89485956 274.62890625 1546.78515625 C281.30198338 1557.40580289 288.20996155 1567.7875017 295.54101562 1577.96435547 C297.51309408 1580.71589332 299.45254357 1583.48978286 301.39404297 1586.26293945 C312.86675397 1602.62469726 324.82442269 1618.52357559 337.453125 1634.0078125 C338.16984375 1634.89210938 338.8865625 1635.77640625 339.625 1636.6875 C340.23601563 1637.43386719 340.84703125 1638.18023438 341.4765625 1638.94921875 C343 1641 343 1641 345 1645 C142.05 1645 -60.9 1645 -270 1645 C-270 1191.25 -270 737.5 -270 270 C-260.76 268.02 -251.52 266.04 -242 264 C-154.60421744 240.05594998 -82.31868131 185.50813382 -37.34643555 106.65673828 C-24.79742418 84.35533874 -15.1851657 60.94381178 -8.1875 36.3125 C-7.93403809 35.4261084 -7.68057617 34.5397168 -7.41943359 33.62646484 C-4.40008512 22.5241302 -2.35249628 11.29198212 0 0 Z " fill="#FFFFEF" transform="translate(1900,1710)"/>
<path d="M0 0 C0 435.6 0 871.2 0 1320 C-41.95872405 1320 -41.95872405 1320 -54.125 1318.875 C-54.85640198 1318.81097992 -55.58780396 1318.74695984 -56.34136963 1318.68099976 C-99.51919467 1314.88223895 -142.38043261 1307.12547269 -184 1295 C-184.62892151 1294.81757751 -185.25784302 1294.63515503 -185.90582275 1294.44720459 C-224.67928504 1283.17580664 -261.83328613 1267.9176607 -298 1250 C-299.52729736 1249.24444824 -299.52729736 1249.24444824 -301.08544922 1248.47363281 C-317.18830424 1240.44912458 -332.5724773 1231.46788007 -347.83398438 1221.97021484 C-350.66964525 1220.20558011 -353.51302518 1218.45434372 -356.359375 1216.70703125 C-367.27702508 1209.96129955 -377.70159216 1202.65269067 -388 1195 C-389.07822021 1194.20215088 -389.07822021 1194.20215088 -390.17822266 1193.38818359 C-398.24553725 1187.41314012 -406.22211454 1181.34955925 -414 1175 C-415.26650391 1173.97712891 -415.26650391 1173.97712891 -416.55859375 1172.93359375 C-428.82904922 1162.97831855 -440.62816437 1152.61774229 -452.11328125 1141.76904297 C-453.9681989 1140.02981764 -455.83985027 1138.31091614 -457.71875 1136.59765625 C-466.60857253 1128.4658806 -474.92533857 1119.90984414 -483.09521484 1111.05761719 C-484.91362202 1109.09330859 -486.74488404 1107.14208687 -488.58203125 1105.1953125 C-494.20914482 1099.21892424 -499.63700287 1093.17113576 -504.76953125 1086.7578125 C-506.7795113 1084.27261825 -508.84157094 1081.8418371 -510.92871094 1079.42138672 C-517.68283112 1071.56858997 -523.87883994 1063.35123094 -530 1055 C-530.51820313 1054.29746094 -531.03640625 1053.59492188 -531.5703125 1052.87109375 C-583.29922021 982.66757614 -620.18639926 903.95082704 -655.8125 742.3125 C-655.96168884 741.14648254 -655.96168884 741.14648254 -656.1138916 739.95690918 C-659.44850371 713.52894794 -660.37756422 687.22644045 -660.3125 660.625 C-660.31027727 659.0173137 -660.30810077 657.40962734 -660.30596924 655.80194092 C-660.26504281 633.51940754 -660.08382326 611.33564919 -657.27862549 589.19921875 C-656.97767507 586.82378714 -656.68786347 584.44711498 -656.39794922 582.0703125 C-651.95924852 546.1742729 -645.12103375 510.73951549 -635 476 C-634.81757751 475.37107849 -634.63515503 474.74215698 -634.44720459 474.09417725 C-623.17580664 435.32071496 -607.9176607 398.16671387 -590 362 C-589.49629883 360.98180176 -588.99259766 359.96360352 -588.47363281 358.91455078 C-580.44912458 342.81169576 -571.46788007 327.4275227 -561.97021484 312.16601562 C-560.20558011 309.33035475 -558.45434372 306.48697482 -556.70703125 303.640625 C-549.96129955 292.72297492 -542.65269067 282.29840784 -535 272 C-534.46810059 271.28118652 -533.93620117 270.56237305 -533.38818359 269.82177734 C-527.41314012 261.75446275 -521.34955925 253.77788546 -515 246 C-514.31808594 245.15566406 -513.63617187 244.31132812 -512.93359375 243.44140625 C-502.97831855 231.17095078 -492.61774229 219.37183563 -481.76904297 207.88671875 C-480.02981764 206.0318011 -478.31091614 204.16014973 -476.59765625 202.28125 C-468.4658806 193.39142747 -459.90984414 185.07466143 -451.05761719 176.90478516 C-449.09330859 175.08637798 -447.14208687 173.25511596 -445.1953125 171.41796875 C-439.21892424 165.79085518 -433.17113576 160.36299713 -426.7578125 155.23046875 C-424.27261825 153.2204887 -421.8418371 151.15842906 -419.42138672 149.07128906 C-411.56858997 142.31716888 -403.35123094 136.12116006 -395 130 C-394.29746094 129.48179687 -393.59492188 128.96359375 -392.87109375 128.4296875 C-322.66757614 76.70077979 -243.95082704 39.81360074 0 0 Z " fill="#F12121" transform="translate(3050,2040)"/>
<path d="M0 0 C2.32676295 -0.00131689 4.65352546 -0.00395606 6.98028564 -0.00778198 C13.30385401 -0.01443132 19.62726661 -0.00258102 25.95081523 0.01254536 C32.18294679 0.02591876 38.4150828 0.02177715 44.64722443 0.01972226 C57.30037947 0.01601845 69.95348738 0.02578233 82.60662842 0.04403687 C99.71533887 0.06867543 116.82396909 0.07435357 133.93270874 0.07695007 C175.03468767 0.09266931 216.13665323 0.13455296 257.23861694 0.17326355 C349.10236694 0.23513855 440.96611694 0.29701355 535.61361694 0.36076355 C535.61361694 267.66076355 535.61361694 534.96076355 535.61361694 810.36076355 C155.78361694 810.36076355 -224.04638306 810.36076355 -615.38638306 810.36076355 C-617.36638306 801.45076355 -619.34638306 792.54076355 -621.38638306 783.36076355 C-626.30543742 766.06208904 -632.07795412 749.75068952 -639.38638306 733.36076355 C-639.7534436 732.52496765 -640.12050415 731.68917175 -640.49868774 730.82804871 C-673.47849137 656.16334233 -739.06217771 594.7453092 -814.71060181 564.82170105 C-896.95683653 533.1434848 -988.39734631 533.49984436 -1069.38638306 569.23576355 C-1095.11358929 580.91470817 -1119.50259195 595.41784615 -1141.38638306 613.36076355 C-1141.90668091 613.78631531 -1142.42697876 614.21186707 -1142.96304321 614.65031433 C-1204.64247179 665.32017734 -1242.03287752 732.68161224 -1258.38638306 810.36076355 C-1496.31638306 810.36076355 -1734.24638306 810.36076355 -1979.38638306 810.36076355 C-1979.46888306 742.83451355 -1979.55138306 675.30826355 -1979.63638306 605.73576355 C-1979.67279907 584.42675476 -1979.70921509 563.11774597 -1979.74673462 541.16300964 C-1979.76480103 515.11003113 -1979.76480103 515.11003113 -1979.76815796 502.90730286 C-1979.77187933 494.39822442 -1979.78651476 485.88925174 -1979.8086853 477.38020325 C-1979.8342517 467.55319704 -1979.84570241 457.72629182 -1979.84016286 447.89925215 C-1979.83776613 442.87854989 -1979.84141033 437.85807294 -1979.86324358 432.8374126 C-1980.01931189 395.06008407 -1975.59395817 361.14535543 -1953.38638306 329.36076355 C-1952.70575806 328.38236511 -1952.02513306 327.40396667 -1951.32388306 326.3959198 C-1927.60720818 293.9858016 -1892.99259915 272.98305202 -1853.50608826 266.32344055 C-1846.41572924 265.24886133 -1839.49459457 265.09200058 -1832.3343811 265.13371277 C-1830.98272714 265.13427867 -1829.63107256 265.13395684 -1828.27941895 265.13282776 C-1824.65421572 265.13226022 -1821.02914823 265.14391606 -1817.4039762 265.15797567 C-1813.59903153 265.17058426 -1809.79408283 265.17166144 -1805.98912048 265.17402649 C-1798.80362405 265.18021178 -1791.61818939 265.19658211 -1784.43272001 265.21672547 C-1776.24394945 265.23917701 -1768.05517574 265.25010104 -1759.866382 265.26011634 C-1743.03967969 265.28095139 -1726.21303929 265.31606917 -1709.38638306 265.36076355 C-1709.3952655 264.36899109 -1709.40414795 263.37721863 -1709.41329956 262.35539246 C-1709.49490078 252.94210944 -1709.55459323 243.52889955 -1709.59363174 234.11534119 C-1709.61437755 229.27740063 -1709.64245295 224.43974889 -1709.68814087 219.60197449 C-1709.73206839 214.92052939 -1709.75561754 210.23935952 -1709.76589203 205.557724 C-1709.77320026 203.78460872 -1709.78746737 202.01150601 -1709.80930328 200.23851013 C-1709.98032902 185.7566355 -1708.6059475 171.92385222 -1701.57388306 158.92326355 C-1701.05241699 157.92710022 -1701.05241699 157.92710022 -1700.52041626 156.91081238 C-1697.66155127 151.58716153 -1694.47263619 146.8303578 -1690.38638306 142.36076355 C-1689.58587524 141.4687323 -1688.78536743 140.57670105 -1687.96060181 139.65763855 C-1674.69917728 125.60935671 -1655.93485077 115.62850331 -1636.3454334 115.01434124 C-1632.40874203 114.95325969 -1628.47374172 114.95808159 -1624.53671265 114.9730835 C-1622.74346752 114.96890487 -1620.95022505 114.96342446 -1619.15698743 114.95676368 C-1614.25525162 114.94235954 -1609.35368468 114.94653805 -1604.45193982 114.9539305 C-1599.15525581 114.95867241 -1593.85860779 114.9461432 -1588.56193542 114.93591309 C-1578.19486089 114.91873916 -1567.827847 114.91788226 -1557.46076193 114.92312599 C-1549.03106822 114.92717194 -1540.60139239 114.92571908 -1532.17169952 114.92037773 C-1530.37014448 114.9192551 -1530.37014448 114.9192551 -1528.53219439 114.91810979 C-1526.0920495 114.91657826 -1523.6519046 114.91503991 -1521.21175972 114.91349482 C-1498.34085242 114.89977458 -1475.46997935 114.90520387 -1452.59907284 114.91668003 C-1431.6946309 114.92660943 -1410.7902775 114.91367593 -1389.88584921 114.88974584 C-1368.40158708 114.86533804 -1346.91736616 114.85575126 -1325.43309045 114.86239856 C-1313.3792032 114.86588736 -1301.32538401 114.86368124 -1289.27150726 114.84614754 C-1279.00909462 114.83140447 -1268.74679797 114.83081755 -1258.48438755 114.84821845 C-1253.25301099 114.85671388 -1248.02184145 114.85891366 -1242.79047585 114.84356689 C-1237.99245251 114.82966621 -1233.1948125 114.83455178 -1228.39681104 114.85380613 C-1226.67011426 114.85755004 -1224.94338638 114.85469114 -1223.21671745 114.84419448 C-1209.1512759 114.76483504 -1195.55280053 116.35575996 -1182.94888306 123.17326355 C-1181.95271973 123.69472961 -1181.95271973 123.69472961 -1180.93643188 124.22673035 C-1175.61278104 127.08559534 -1170.85597731 130.27451041 -1166.38638306 134.36076355 C-1165.49435181 135.16127136 -1164.60232056 135.96177917 -1163.68325806 136.7865448 C-1150.11298524 149.59673403 -1143.85960031 164.46789453 -1139.38638306 182.36076355 C-1139.38638306 209.75076355 -1139.38638306 237.14076355 -1139.38638306 265.36076355 C-868.78638306 265.36076355 -598.18638306 265.36076355 -319.38638306 265.36076355 C-318.06638306 258.76076355 -316.74638306 252.16076355 -315.38638306 245.36076355 C-314.38590663 241.39780581 -313.37321824 237.5153747 -312.19888306 233.61076355 C-311.90191528 232.61601013 -311.60494751 231.62125671 -311.29898071 230.59635925 C-303.03337854 203.50213267 -291.64079291 177.27992524 -276.38638306 153.36076355 C-275.97291626 152.71220398 -275.55944946 152.06364441 -275.13345337 151.39543152 C-265.15371551 135.87352563 -253.93131764 121.32512286 -241.49575806 107.68888855 C-239.62962738 105.62923322 -237.81568518 103.5368746 -236.01138306 101.42326355 C-229.05757429 93.45300477 -221.39847939 86.24709164 -213.38638306 79.36076355 C-212.44097656 78.54732483 -212.44097656 78.54732483 -211.47647095 77.717453 C-169.22558027 41.65468605 -119.25020648 17.71282612 -65.01138306 6.11076355 C-63.93928589 5.87655701 -62.86718872 5.64235046 -61.76260376 5.40104675 C-41.350372 1.23616897 -20.78609236 -0.08900118 0 0 Z M-46.57388306 64.54826355 C-47.72058472 64.76184509 -48.86728638 64.97542664 -50.04873657 65.19548035 C-61.7343618 67.46846861 -73.09749161 70.59779974 -84.38638306 74.36076355 C-85.70098511 74.79896423 -85.70098511 74.79896423 -87.04214478 75.24601746 C-120.93691624 86.816881 -150.62185778 105.85407625 -177.38638306 129.36076355 C-178.37767212 130.22830261 -179.36896118 131.09584167 -180.39028931 131.9896698 C-185.10495267 136.19117253 -189.54831993 140.43344057 -193.60513306 145.27482605 C-194.87670185 146.76390003 -196.19513516 148.21346957 -197.54263306 149.63420105 C-214.55943256 167.59023949 -227.95665303 189.03384875 -238.45083618 211.37004089 C-239.0828834 212.71495557 -239.72241427 214.05637488 -240.36880493 215.39445496 C-250.62815857 236.68811341 -256.49205923 259.12738072 -260.97763062 282.2540741 C-261.42333456 284.55120973 -261.87284077 286.84758612 -262.32241821 289.14396667 C-263.31279317 294.21419008 -264.29016456 299.28683859 -265.26138306 304.36076355 C-265.49765915 305.5915564 -265.49765915 305.5915564 -265.7387085 306.84721375 C-266.18553176 309.18426242 -266.62681324 311.52228238 -267.06607056 313.86076355 C-267.20011795 314.56054321 -267.33416534 315.26032288 -267.47227478 315.98130798 C-268.07045836 319.19972728 -268.38638306 322.06787052 -268.38638306 325.36076355 C-268.94225559 325.36063554 -269.49812812 325.36050752 -270.07084528 325.36037563 C-317.2814932 325.34951181 -364.49214121 325.33910332 -411.70278931 325.32902527 C-412.63760935 325.32882567 -413.57242939 325.32862608 -414.53557731 325.32842043 C-514.70028222 325.30704637 -614.86498717 325.28860003 -715.0296936 325.27607727 C-717.2545629 325.27579837 -719.4794322 325.27551947 -721.70430149 325.27524056 C-768.40465661 325.26939522 -815.10501177 325.26396178 -861.80536699 325.25900419 C-885.26442172 325.2565134 -908.72347644 325.25394345 -932.18253115 325.25129867 C-935.7212461 325.25090017 -939.25996105 325.25050393 -942.798676 325.25010779 C-997.29137264 325.24398766 -1051.78406838 325.23616973 -1106.27676392 325.22343445 C-1108.03429215 325.22302375 -1108.03429215 325.22302375 -1109.82732601 325.22260476 C-1128.71842431 325.21818 -1147.60952259 325.21361279 -1166.50062085 325.20902667 C-1220.91130741 325.19581976 -1275.32199328 325.18366586 -1329.73268127 325.17848396 C-1330.85154494 325.17837689 -1331.97040861 325.17826982 -1333.12317724 325.17815951 C-1357.68468767 325.175828 -1382.2461981 325.17403829 -1406.80770861 325.17276158 C-1416.69036857 325.17223834 -1426.57302852 325.1716371 -1436.45568848 325.17100906 C-1437.5373039 325.17094221 -1438.61891932 325.17087536 -1439.73331096 325.17080647 C-1474.58561467 325.16861346 -1509.43791327 325.1600709 -1544.29021491 325.14819913 C-1579.39712385 325.13626969 -1614.50402783 325.13056504 -1649.61093884 325.13351557 C-1654.46222674 325.13392174 -1659.31351464 325.1342565 -1664.16480255 325.13454819 C-1665.59128999 325.13463783 -1665.59128999 325.13463783 -1667.04659535 325.13472928 C-1682.10575547 325.13549062 -1697.16490511 325.1295213 -1712.22406237 325.12074383 C-1727.03166264 325.11225129 -1741.83924933 325.11088561 -1756.64685088 325.11709992 C-1765.32814126 325.1205283 -1774.00938855 325.11848783 -1782.6906739 325.10832955 C-1788.45982568 325.10212642 -1794.22894671 325.10321081 -1799.99809755 325.1101614 C-1803.26622781 325.11389622 -1806.53425836 325.11347616 -1809.80238524 325.10629306 C-1840.20364506 325.04371069 -1867.09306201 328.09294868 -1890.38638306 349.36076355 C-1891.11470337 350.01947449 -1891.84302368 350.67818542 -1892.59341431 351.3568573 C-1910.34407934 368.22508009 -1918.3933201 392.07631344 -1919.56687188 416.04745483 C-1919.63488333 419.73870815 -1919.64385054 423.42479263 -1919.62689209 427.11662292 C-1919.6277701 428.52125628 -1919.6295297 429.92588931 -1919.63208008 431.33052063 C-1919.63651139 435.14655991 -1919.62861505 438.9624844 -1919.61852852 442.77850914 C-1919.60971937 446.97328486 -1919.61272269 451.16805629 -1919.61416435 455.36283875 C-1919.6152225 463.48493681 -1919.60603849 471.60699023 -1919.59316169 479.72907686 C-1919.57869925 489.13495587 -1919.57716879 498.54080849 -1919.57559204 507.94670105 C-1919.56511326 532.75139557 -1919.53719082 557.55608024 -1919.51138306 582.36076355 C-1919.47013306 637.80076355 -1919.42888306 693.24076355 -1919.38638306 750.36076355 C-1717.09638306 750.36076355 -1514.80638306 750.36076355 -1306.38638306 750.36076355 C-1301.93138306 737.98576355 -1301.93138306 737.98576355 -1297.38638306 725.36076355 C-1295.62675777 721.03784922 -1293.87280943 716.78905476 -1291.94888306 712.54826355 C-1291.48989624 711.52386169 -1291.03090942 710.49945984 -1290.55801392 709.4440155 C-1280.89426282 688.06029012 -1269.86337747 667.61016237 -1256.38638306 648.36076355 C-1255.91619751 647.68835632 -1255.44601196 647.0159491 -1254.96157837 646.32316589 C-1248.33729329 636.89026648 -1241.49644604 627.81727375 -1233.90054321 619.1459198 C-1232.7451841 617.78378084 -1231.61996751 616.3960168 -1230.50894165 614.9974823 C-1224.81790803 607.84969945 -1218.68297576 601.34785222 -1212.20327759 594.91691589 C-1210.51325064 593.23761927 -1208.83420542 591.54787386 -1207.15591431 589.8568573 C-1200.5393822 583.23227265 -1193.72059951 577.19002117 -1186.38638306 571.36076355 C-1185.2725915 570.4145389 -1184.16455406 569.461436 -1183.06607056 568.4974823 C-1175.24859356 561.67079974 -1167.01825673 555.63476709 -1158.45474243 549.77775574 C-1156.55397603 548.47557819 -1154.66472409 547.15830824 -1152.77700806 545.83732605 C-1105.11638576 512.86857687 -1049.34700322 493.2232775 -992.38638306 484.36076355 C-990.86053589 484.11084656 -990.86053589 484.11084656 -989.30386353 483.85588074 C-954.56567876 478.36462129 -916.07769213 478.70397198 -881.38638306 484.36076355 C-880.26522095 484.53237 -879.14405884 484.70397644 -877.98892212 484.88078308 C-820.66837223 493.74748136 -764.99531948 515.02853454 -717.38638306 548.36076355 C-716.71397583 548.8309491 -716.0415686 549.30113464 -715.3487854 549.78556824 C-705.91588599 556.40985332 -696.84289326 563.25070057 -688.17153931 570.84660339 C-686.80940035 572.0019625 -685.42163631 573.1271791 -684.02310181 574.23820496 C-676.87531896 579.92923858 -670.37347173 586.06417085 -663.9425354 592.54386902 C-662.26323878 594.23389597 -660.57349337 595.91294119 -658.88247681 597.5912323 C-652.25789215 604.2077644 -646.21564068 611.0265471 -640.38638306 618.36076355 C-639.4401584 619.47455511 -638.48705551 620.58259255 -637.52310181 621.68107605 C-630.1457935 630.12909417 -623.6663833 639.0743802 -617.38638306 648.36076355 C-616.69028931 649.38943542 -616.69028931 649.38943542 -615.98013306 650.43888855 C-594.95353574 681.73984592 -579.91467958 714.86392341 -567.38638306 750.36076355 C-223.19638306 750.36076355 120.99361694 750.36076355 475.61361694 750.36076355 C475.61361694 522.66076355 475.61361694 294.96076355 475.61361694 60.36076355 C396.80549194 60.31951355 317.99736694 60.27826355 236.80111694 60.23576355 C211.93534302 60.21755554 187.06956909 60.19934753 161.45028687 60.18058777 C139.12250546 60.17389808 139.12250546 60.17389808 116.79472351 60.1698761 C106.865067 60.16801603 96.93543317 60.16070086 87.00578308 60.14961243 C75.53646413 60.13682372 64.06716681 60.13110516 52.59784069 60.13387365 C46.73890785 60.13507132 40.88002329 60.1332585 35.02109945 60.12233329 C-5.9561829 59.73662617 -5.9561829 59.73662617 -46.57388306 64.54826355 Z " fill="#FFFFEF" transform="translate(2514.3863830566406,789.6392364501953)"/>
<path d="M0 0 C0.84220596 -0.00701431 1.68441193 -0.01402863 2.55213928 -0.02125549 C5.26007475 -0.03869046 7.96779169 -0.0451091 10.67578125 -0.046875 C11.59967651 -0.04754974 12.52357178 -0.04822449 13.47546387 -0.04891968 C26.87700461 -0.0333392 39.84733027 0.35244251 52.98828125 3.203125 C53.83084473 3.37473145 54.6734082 3.54633789 55.54150391 3.72314453 C88.1753684 10.44205794 118.96785456 24.27209306 144.98828125 45.203125 C145.98601562 45.9971875 146.98375 46.79125 148.01171875 47.609375 C190.7531716 82.30976337 218.32274367 131.70321598 225.98828125 186.203125 C226.16335205 187.43377686 226.33842285 188.66442871 226.51879883 189.93237305 C227.06362277 194.36422253 227.16654656 198.75339829 227.19140625 203.21484375 C227.19842056 204.05704971 227.20543488 204.89925568 227.21266174 205.76698303 C227.23009671 208.4749185 227.23651535 211.18263544 227.23828125 213.890625 C227.23895599 214.81452026 227.23963074 215.73841553 227.24032593 216.69030762 C227.22474545 230.09184836 226.83896374 243.06217402 223.98828125 256.203125 C223.8166748 257.04568848 223.64506836 257.88825195 223.46826172 258.75634766 C216.74934831 291.39021215 202.91931319 322.18269831 181.98828125 348.203125 C180.7971875 349.69972656 180.7971875 349.69972656 179.58203125 351.2265625 C144.88164288 393.96801535 95.48819027 421.53758742 40.98828125 429.203125 C39.75762939 429.3781958 38.52697754 429.5532666 37.2590332 429.73364258 C32.82718372 430.27846652 28.43800796 430.38139031 23.9765625 430.40625 C23.13435654 430.41326431 22.29215057 430.42027863 21.42442322 430.42750549 C18.71648775 430.44494046 16.00877081 430.4513591 13.30078125 430.453125 C12.37688599 430.45379974 11.45299072 430.45447449 10.50109863 430.45516968 C-2.90044211 430.4395892 -15.87076777 430.05380749 -29.01171875 427.203125 C-29.85428223 427.03151855 -30.6968457 426.85991211 -31.56494141 426.68310547 C-64.1988059 419.96419206 -94.99129206 406.13415694 -121.01171875 385.203125 C-122.00945312 384.4090625 -123.0071875 383.615 -124.03515625 382.796875 C-166.7766091 348.09648663 -194.34618117 298.70303402 -202.01171875 244.203125 C-202.18678955 242.97247314 -202.36186035 241.74182129 -202.54223633 240.47387695 C-203.08706027 236.04202747 -203.18998406 231.65285171 -203.21484375 227.19140625 C-203.22185806 226.34920029 -203.22887238 225.50699432 -203.23609924 224.63926697 C-203.25353421 221.9313315 -203.25995285 219.22361456 -203.26171875 216.515625 C-203.26239349 215.59172974 -203.26306824 214.66783447 -203.26376343 213.71594238 C-203.24818295 200.31440164 -202.86240124 187.34407598 -200.01171875 174.203125 C-199.8401123 173.36056152 -199.66850586 172.51799805 -199.49169922 171.64990234 C-192.77278581 139.01603785 -178.94275069 108.22355169 -158.01171875 82.203125 C-157.21765625 81.20539063 -156.42359375 80.20765625 -155.60546875 79.1796875 C-120.90508038 36.43823465 -71.51162777 8.86866258 -17.01171875 1.203125 C-15.78106689 1.0280542 -14.55041504 0.8529834 -13.2824707 0.67260742 C-8.85062122 0.12778348 -4.46144546 0.02485969 0 0 Z " fill="#FFBD00" transform="translate(1558.01171875,1439.796875)"/>
<path d="M0 0 C0 13.53 0 27.06 0 41 C-7.37203956 41.61433663 -14.63572084 42.16636821 -22.01171875 42.39453125 C-23.90156107 42.46037575 -25.79137129 42.52714662 -27.68115234 42.59472656 C-28.65928894 42.62957153 -29.63742554 42.6644165 -30.64520264 42.70031738 C-104.17414931 45.41164658 -176.85186498 57.70401389 -247 80 C-247.64908325 80.20540405 -248.2981665 80.41080811 -248.96691895 80.62243652 C-298.0913554 96.18284953 -346.26473922 116.2103376 -391.22949219 141.45068359 C-394.167812 143.09384341 -397.11806728 144.7140366 -400.0703125 146.33203125 C-451.89886439 174.85569578 -500.78266109 209.92566037 -544.5234375 249.76953125 C-546.61595989 251.6541216 -548.72787267 253.51021217 -550.8515625 255.359375 C-562.18575553 265.26394708 -572.91067717 275.8102777 -583.5625 286.4375 C-584.07901123 286.95142303 -584.59552246 287.46534607 -585.12768555 287.99484253 C-590.40612643 293.25239221 -595.59842583 298.53702043 -600.44604492 304.20092773 C-602.99843438 307.15592505 -605.69618846 309.97259084 -608.375 312.8125 C-613.02639178 317.78318955 -617.4515005 322.86221192 -621.70703125 328.1796875 C-623.83461749 330.79658233 -626.01989766 333.3445157 -628.23583984 335.88598633 C-634.9646207 343.6139944 -641.20038862 351.65681054 -647.36328125 359.83984375 C-648.96733969 361.95689463 -650.58916524 364.05880392 -652.21875 366.15625 C-664.19110367 381.59055476 -675.36183518 397.61903623 -686 414 C-686.45020508 414.69319336 -686.90041016 415.38638672 -687.36425781 416.10058594 C-700.54981823 436.49798818 -712.55865483 457.58281356 -724 479 C-724.50853516 479.94327148 -725.01707031 480.88654297 -725.54101562 481.85839844 C-740.32748153 509.34133788 -752.91939123 537.83547331 -764 567 C-764.25890015 567.67959778 -764.51780029 568.35919556 -764.7845459 569.05938721 C-795.56850196 650.0239616 -813.15555487 735.40678378 -818 848 C-818.03754395 849.21413574 -818.07508789 850.42827148 -818.11376953 851.67919922 C-818.28904677 858.46209777 -818.20354427 865.21852269 -818 872 C-817.97808594 872.76624695 -817.95617188 873.5324939 -817.93359375 874.32196045 C-815.63790026 953.51772229 -804.03220029 1031.38934872 -780 1107 C-779.79459595 1107.64908325 -779.58919189 1108.2981665 -779.37756348 1108.96691895 C-763.81715047 1158.0913554 -743.7896624 1206.26473922 -718.54931641 1251.22949219 C-716.90615659 1254.167812 -715.2859634 1257.11806728 -713.66796875 1260.0703125 C-685.14430422 1311.89886439 -650.07433963 1360.78266109 -610.23046875 1404.5234375 C-608.3458784 1406.61595989 -606.48978783 1408.72787267 -604.640625 1410.8515625 C-594.73605292 1422.18575553 -584.1897223 1432.91067717 -573.5625 1443.5625 C-573.04857697 1444.07901123 -572.53465393 1444.59552246 -572.00515747 1445.12768555 C-566.74760779 1450.40612643 -561.46297957 1455.59842583 -555.79907227 1460.44604492 C-552.84407495 1462.99843438 -550.02740916 1465.69618846 -547.1875 1468.375 C-542.21681045 1473.02639178 -537.13778808 1477.4515005 -531.8203125 1481.70703125 C-529.20341767 1483.83461749 -526.6554843 1486.01989766 -524.11401367 1488.23583984 C-516.3860056 1494.9646207 -508.34318946 1501.20038862 -500.16015625 1507.36328125 C-498.04310537 1508.96733969 -495.94119608 1510.58916524 -493.84375 1512.21875 C-478.40944524 1524.19110367 -462.38096377 1535.36183518 -446 1546 C-445.30680664 1546.45020508 -444.61361328 1546.90041016 -443.89941406 1547.36425781 C-423.50201182 1560.54981823 -402.41718644 1572.55865483 -381 1584 C-380.05672852 1584.50853516 -379.11345703 1585.01707031 -378.14160156 1585.54101562 C-350.65866212 1600.32748153 -322.16452669 1612.91939123 -293 1624 C-292.32040222 1624.25890015 -291.64080444 1624.51780029 -290.94061279 1624.7845459 C-209.78157411 1655.64244023 -124.10957934 1673.35411213 -28.08544922 1677.35473633 C-27.10984543 1677.39132858 -26.13424164 1677.42792084 -25.1290741 1677.46562195 C-23.31383672 1677.5326287 -21.49850247 1677.59708997 -19.68305969 1677.65827942 C-13.08131465 1677.89888944 -6.60582976 1678.44951419 0 1679 C0 1692.53 0 1706.06 0 1720 C-94.14638577 1720.9875495 -186.72916576 1705.47817371 -379.50683594 1632.72314453 C-382.93001678 1631.03452206 -386.35925149 1629.35869872 -389.7890625 1627.68359375 C-404.1601193 1620.62499946 -418.17872295 1613.08090724 -432 1605 C-432.83660156 1604.51208984 -433.67320312 1604.02417969 -434.53515625 1603.52148438 C-455.97630086 1590.96601221 -476.79837367 1577.4611349 -497 1563 C-498.53505353 1561.91001158 -500.07020878 1560.82016638 -501.60546875 1559.73046875 C-525.28973948 1542.84660697 -548.21800909 1524.6002826 -569.75 1505.03515625 C-571.74989375 1503.22622457 -573.77269432 1501.45108199 -575.8125 1499.6875 C-587.76731306 1489.22645201 -599.04291323 1478.11489603 -610.25878906 1466.87158203 C-612.88753409 1464.23744018 -615.52163178 1461.60873496 -618.15625 1458.98046875 C-619.85188349 1457.28417497 -621.54720703 1455.5875713 -623.2421875 1453.890625 C-624.01835419 1453.11648254 -624.79452087 1452.34234009 -625.59420776 1451.54473877 C-629.72270785 1447.3986126 -633.69413041 1443.17226306 -637.50579834 1438.73231506 C-639.72957919 1436.15415633 -642.05438512 1433.67885081 -644.375 1431.1875 C-648.6655487 1426.54308403 -652.72872414 1421.76241201 -656.6953125 1416.8359375 C-658.75803341 1414.29774194 -660.85842527 1411.80163533 -662.98339844 1409.31591797 C-702.84365419 1362.67242571 -736.80236913 1309.9483411 -764.7421875 1255.42578125 C-765.82322984 1253.34091388 -766.92855746 1251.27514579 -768.0625 1249.21875 C-807.43529939 1177.69149778 -832.22597453 1095.63234221 -855.8125 954.25 C-855.91195923 953.35454468 -856.01141846 952.45908936 -856.1138916 951.53649902 C-859.33275252 922.14318069 -860.38031292 892.90955253 -860.31805801 863.36727905 C-860.31241269 860.64540549 -860.30959539 857.92353816 -860.30697632 855.20166016 C-860.27149475 829.83385089 -860.00616993 804.58654956 -857.25323486 779.34259033 C-856.98550365 776.86589916 -856.73176254 774.38802901 -856.47998047 771.90966797 C-847.81933492 687.47560213 -826.99081666 604.48179733 -772 479 C-771.61505371 478.21496094 -771.23010742 477.42992188 -770.83349609 476.62109375 C-768.59588534 472.0597699 -766.31302642 467.52349412 -764 463 C-763.61199219 462.23655273 -763.22398437 461.47310547 -762.82421875 460.68652344 C-743.45079978 422.67443592 -720.4348926 386.25133235 -695 352 C-694.49275391 351.31405762 -693.98550781 350.62811523 -693.46289062 349.92138672 C-678.22053823 329.33261984 -662.26824903 309.2155201 -645.03515625 290.25 C-643.22622457 288.25010625 -641.45108199 286.22730568 -639.6875 284.1875 C-629.22645201 272.23268694 -618.11489603 260.95708677 -606.87158203 249.74121094 C-604.23744018 247.11246591 -601.60873496 244.47836822 -598.98046875 241.84375 C-597.28417497 240.14811651 -595.5875713 238.45279297 -593.890625 236.7578125 C-592.72941132 235.59356247 -592.72941132 235.59356247 -591.54473877 234.40579224 C-587.3986126 230.27729215 -583.17226306 226.30586959 -578.73231506 222.49420166 C-576.15415633 220.27042081 -573.67885081 217.94561488 -571.1875 215.625 C-566.54308403 211.3344513 -561.76241201 207.27127586 -556.8359375 203.3046875 C-554.29774194 201.24196659 -551.80163533 199.14157473 -549.31591797 197.01660156 C-502.67242571 157.15634581 -449.9483411 123.19763087 -395.42578125 95.2578125 C-393.34091388 94.17677016 -391.27514579 93.07144254 -389.21875 91.9375 C-317.69149778 52.56470061 -235.63234221 27.77402547 -72 2 C-71.25530457 1.93103516 -70.51060913 1.86207031 -69.74334717 1.79101562 C-46.47237703 -0.33655453 -23.35654817 -0.15728315 0 0 Z " fill="#F12121" transform="translate(3050,1840)"/>
<path d="M0 0 C15.84 0 31.68 0 48 0 C48 46.2 48 92.4 48 140 C32.82 140 17.64 140 2 140 C1.01 132.74 0.02 125.48 -1 118 C-4.06644392 112.09480741 -4.06644392 112.09480741 -7.05299377 111.28277588 C-12.97829493 111.58236999 -17.44290425 113.06652311 -22.71484375 115.734375 C-23.52026611 116.12383301 -24.32568848 116.51329102 -25.15551758 116.91455078 C-27.75773656 118.17691446 -30.34740341 119.46297396 -32.9375 120.75 C-35.63208158 122.06688119 -38.32927287 123.37831526 -41.02650452 124.6897583 C-42.81853105 125.56188824 -44.6095018 126.43619098 -46.3993988 127.31268311 C-51.59576532 129.85352455 -56.81474715 132.32322408 -62.09375 134.6875 C-63.85537476 135.47882324 -63.85537476 135.47882324 -65.65258789 136.28613281 C-67.76253579 137.22639648 -69.87604372 138.15873395 -71.99389648 139.08105469 C-81.23999736 143.23414589 -90.02460685 148.86485192 -95 158 C-97.5367471 164.74319945 -97.34856599 171.4514207 -97.4140625 178.58984375 C-97.44052856 180.31902039 -97.44052856 180.31902039 -97.4675293 182.08312988 C-97.53034625 186.36778097 -97.57670529 190.65266062 -97.625 194.9375 C-97.74875 204.528125 -97.8725 214.11875 -98 224 C-66.32 224 -34.64 224 -2 224 C-1.67 215.42 -1.34 206.84 -1 198 C-0.67 194.7 -0.34 191.4 0 188 C15.84 188 31.68 188 48 188 C48 234.2 48 280.4 48 328 C32.82 328 17.64 328 2 328 C0.75 316.4375 0.75 316.4375 0.38574219 312.83374023 C-0.33951426 306.62673642 -1.21007722 302.04170385 -5 297 C-7.94349625 295.14513939 -10.19678561 294.74803168 -13.6464119 294.73828697 C-14.58095931 294.73082148 -15.51550673 294.72335599 -16.47837377 294.71566427 C-17.50171465 294.717599 -18.52505553 294.71953374 -19.57940674 294.7215271 C-21.21387068 294.7128385 -21.21387068 294.7128385 -22.88135409 294.70397437 C-26.54495585 294.68692312 -30.20843203 294.68409342 -33.87207031 294.68115234 C-36.49331981 294.67185772 -39.11456634 294.66168975 -41.73580933 294.65071106 C-47.38554602 294.62843031 -53.03526458 294.61342194 -58.68503571 294.60334396 C-66.85366303 294.58876239 -75.02222717 294.56322704 -83.19081745 294.53501268 C-96.44360116 294.4895352 -109.69639396 294.45292434 -122.94921875 294.421875 C-135.82358395 294.39169337 -148.69792691 294.35734489 -161.57226562 294.31738281 C-162.36575555 294.31492126 -163.15924548 294.31245972 -163.97678056 294.30992357 C-167.95746119 294.29754905 -171.93814156 294.2850925 -175.91882181 294.27259517 C-208.94585105 294.16901305 -241.97290464 294.07981453 -275 294 C-274.98839844 294.88558594 -274.97679688 295.77117187 -274.96484375 296.68359375 C-274.95582031 297.92238281 -274.94679688 299.16117188 -274.9375 300.4375 C-274.92589844 301.63246094 -274.91429688 302.82742188 -274.90234375 304.05859375 C-275.0470378 311.38011249 -275.56998166 318.68968829 -276 326 C-292.17 326 -308.34 326 -325 326 C-325.04532212 304.34509099 -325.08209054 282.69022098 -325.10362434 261.03527641 C-325.11389306 250.97825282 -325.12786809 240.921261 -325.15087891 230.86425781 C-325.1709488 222.08834374 -325.18374834 213.3124527 -325.18817699 204.53651631 C-325.19076159 199.89903922 -325.19674211 195.26162798 -325.21146011 190.62417221 C-325.32635899 152.96264667 -325.32635899 152.96264667 -323 135 C-322.8511586 133.83964233 -322.7023172 132.67928467 -322.54896545 131.48376465 C-322.19980281 128.95155381 -321.78516183 126.44932313 -321.3125 123.9375 C-321.14443848 123.04377686 -320.97637695 122.15005371 -320.80322266 121.22924805 C-315.5677311 95.06785007 -304.58767263 68.78532827 -282.1640625 52.99609375 C-255.99644148 36.48787851 -223.97800505 33.82103179 -194.05078125 39.74609375 C-168.43918833 45.76762814 -145.67839325 63.69868973 -131.83056641 85.87255859 C-128.66956344 91.12931322 -125.69512483 96.48846971 -123 102 C-122.57589844 101.28714844 -122.15179687 100.57429688 -121.71484375 99.83984375 C-111.01708726 82.37076008 -94.96455819 74.57871756 -76.8125 66.4375 C-75.1034568 65.66134369 -73.39488743 64.88414329 -71.68676758 64.10595703 C-68.18715382 62.51331109 -64.68501312 60.92643674 -61.18066406 59.34423828 C-56.21386082 57.09999366 -51.25763494 54.83322743 -46.3046875 52.55859375 C-37.87717019 48.68945025 -29.44240114 44.83655982 -21 41 C-19.93716797 40.51692383 -18.87433594 40.03384766 -17.77929688 39.53613281 C-15.16768548 38.352167 -12.55359522 37.17401797 -9.9375 36 C-9.22940186 35.67950684 -8.52130371 35.35901367 -7.79174805 35.02880859 C-3.23546549 33 -3.23546549 33 -1 33 C-1.01160156 31.79085938 -1.02320312 30.58171875 -1.03515625 29.3359375 C-1.04455196 27.68229324 -1.05365021 26.02864727 -1.0625 24.375 C-1.07087891 23.58609375 -1.07925781 22.7971875 -1.08789062 21.984375 C-1.11733134 14.56531524 -0.53380082 7.47321144 0 0 Z M-250 116 C-250.63421875 116.38414063 -251.2684375 116.76828125 -251.921875 117.1640625 C-262.75586638 124.97795893 -265.71665203 140.82214418 -268 153 C-270.14352926 176.57882181 -270 200.32394552 -270 224 C-231.06 224 -192.12 224 -152 224 C-148.37647453 169.1351393 -148.37647453 169.1351393 -170.59375 121.22265625 C-185.07547229 107.84587056 -204.51986895 107.39885888 -223.12207031 107.86376953 C-232.82966498 108.32329089 -241.72500245 110.85045117 -250 116 Z " fill="#FFFFEF" transform="translate(3542,1138)"/>
<path d="M0 0 C16.5 0 33 0 50 0 C50 51.48 50 102.96 50 156 C34.82 156 19.64 156 4 156 C1.58990323 153.58990323 2.19714582 146.85346904 1.92578125 143.40820312 C1.30283936 136.63502981 0.49530365 130.21804769 -4.8125 125.5 C-8.3771492 123.82251802 -10.10909969 123.62376851 -14 124 C-17.08151357 125.35598948 -17.08151357 125.35598948 -20.25 127.4375 C-20.87277832 127.82437988 -21.49555664 128.21125977 -22.13720703 128.60986328 C-24.43845214 130.05281494 -26.72021185 131.52336899 -29 133 C-29.97743164 133.63276855 -30.95486328 134.26553711 -31.96191406 134.91748047 C-38.64403835 139.25505337 -45.30398966 143.62563759 -51.95947266 148.00390625 C-55.98259639 150.64507051 -60.01929727 153.26470909 -64.0625 155.875 C-64.72008301 156.29958496 -65.37766602 156.72416992 -66.05517578 157.16162109 C-67.35913425 158.00337604 -68.66317004 158.8450112 -69.96728516 159.68652344 C-72.19221923 161.12420604 -74.41465272 162.56570131 -76.63671875 164.0078125 C-77.40814209 164.50812988 -78.17956543 165.00844727 -78.97436523 165.52392578 C-80.44433071 166.47740838 -81.91392141 167.43146913 -83.38305664 168.38623047 C-86.20305923 170.21410519 -89.01070217 172.00618093 -91.921875 173.6875 C-94.13189425 174.83260572 -94.13189425 174.83260572 -95 177 C-94.32912354 177.22969482 -93.65824707 177.45938965 -92.96704102 177.69604492 C-89.18174396 179.35960714 -85.94189752 181.54748068 -82.52734375 183.86328125 C-81.78758301 184.35925308 -81.04782227 184.85522491 -80.28564453 185.3662262 C-78.67737831 186.44504245 -77.07048635 187.52590958 -75.46481323 188.60858154 C-71.11836183 191.53896575 -66.76168479 194.4540859 -62.40625 197.37109375 C-61.49076889 197.98478821 -60.57528778 198.59848267 -59.63206482 199.23077393 C-48.77265433 206.50425523 -37.85581212 213.69037461 -26.9375 220.875 C-24.11024236 222.73595526 -21.28301588 224.59695783 -18.45581055 226.45799255 C-16.76809181 227.56876232 -15.08019784 228.67926588 -13.39208984 229.78944397 C-9.25222998 232.51277619 -5.1195172 235.24598461 -1 238 C0.70915274 236.29084726 0.35138347 233.99238377 0.53515625 231.65234375 C0.61386963 230.68031006 0.69258301 229.70827637 0.77368164 228.70678711 C0.8689917 227.46292236 0.96430176 226.21905762 1.0625 224.9375 C1.371875 220.998125 1.68125 217.05875 2 213 C17.84 213 33.68 213 50 213 C50 255.9 50 298.8 50 343 C34.82 343 19.64 343 4 343 C3.34 337.06 2.68 331.12 2 325 C-4.5465517 309.72471269 -18.34014903 302.05988009 -31.609375 293.0078125 C-36.3482968 289.77048015 -41.05086877 286.48223022 -45.75 283.1875 C-46.59199951 282.59735107 -47.43399902 282.00720215 -48.30151367 281.39916992 C-50.01740042 280.19617436 -51.73313889 278.99296726 -53.44873047 277.78955078 C-64.78433744 269.83835469 -76.13086325 261.90319101 -87.5 254 C-97.17351771 247.27550897 -106.8302605 240.52748186 -116.47802734 233.76611328 C-119.16765678 231.88259156 -121.85904768 230.00160711 -124.55078125 228.12109375 C-125.46255127 227.48381348 -126.37432129 226.8465332 -127.3137207 226.18994141 C-129.06059507 224.96905039 -130.80780977 223.74864615 -132.55541992 222.52880859 C-133.34150635 221.97918457 -134.12759277 221.42956055 -134.9375 220.86328125 C-135.62714844 220.38157471 -136.31679687 219.89986816 -137.02734375 219.40356445 C-138.41728568 218.41460701 -139.77736771 217.38300872 -141.11352539 216.32250977 C-142.92258678 214.78910418 -142.92258678 214.78910418 -145.24609375 214.9765625 C-149.30378848 216.48452848 -152.54977975 218.87462231 -156.0625 221.375 C-157.77278435 222.56864473 -159.483765 223.76129218 -161.1953125 224.953125 C-162.12504883 225.60345703 -163.05478516 226.25378906 -164.01269531 226.92382812 C-168.8693726 230.2992109 -173.76864037 233.61149012 -178.66671753 236.92633057 C-181.06416936 238.54920197 -183.46006874 240.17435802 -185.85600281 241.79946899 C-187.68885292 243.04262962 -189.52189843 244.28550169 -191.35498047 245.52832031 C-196.65827593 249.1242004 -201.95999828 252.72239835 -207.2618103 256.32046509 C-208.99973287 257.49981872 -210.73776474 258.67901108 -212.47583008 259.8581543 C-217.82060703 263.48429984 -223.16511254 267.11083571 -228.50627136 270.74230957 C-229.73286465 271.57571912 -230.96000429 272.40832516 -232.18769836 273.2401123 C-235.18661219 275.27294805 -238.1763221 277.31695269 -241.14819336 279.38916016 C-246.17654736 282.8767228 -251.12554165 286.18267035 -256.65234375 288.83984375 C-263.73537964 292.30824627 -263.73537964 292.30824627 -269 298 C-271.60238582 306.51827453 -271.8505977 315.45299901 -271.89672852 324.30126953 C-272 327 -272 327 -273 329 C-289.5 329 -306 329 -323 329 C-323 279.83 -323 230.66 -323 180 C-307.49 180 -291.98 180 -276 180 C-275.01 186.27 -274.02 192.54 -273 199 C-270 207 -270 207 -265 209 C-256.98366067 209.89493099 -250.87844151 205.34877723 -244.5 201.125 C-242.91505737 200.10442505 -242.91505737 200.10442505 -241.2980957 199.06323242 C-238.18870281 197.05710396 -235.09363591 195.03031126 -232 193 C-230.44256282 191.99170088 -228.88409556 190.98498955 -227.32421875 189.98046875 C-225.27935604 188.66333033 -223.2360987 187.34423269 -221.19946289 186.0144043 C-217.40603661 183.53756647 -213.58608927 181.1119517 -209.734375 178.7265625 C-208.85241455 178.17830811 -207.9704541 177.63005371 -207.06176758 177.06518555 C-205.34137172 175.99812078 -203.6173566 174.93686441 -201.8894043 173.88208008 C-201.12023682 173.40407959 -200.35106934 172.9260791 -199.55859375 172.43359375 C-198.52690063 171.80022095 -198.52690063 171.80022095 -197.47436523 171.15405273 C-196.98782471 170.77321533 -196.50128418 170.39237793 -196 170 C-196 169.34 -196 168.68 -196 168 C-197.49342661 166.72879402 -197.49342661 166.72879402 -199.50390625 165.48046875 C-200.29128174 164.96371582 -201.07865723 164.44696289 -201.88989258 163.91455078 C-202.77185303 163.34462402 -203.65381348 162.77469727 -204.5625 162.1875 C-206.49571274 160.91937178 -208.42794377 159.64974616 -210.359375 158.37890625 C-211.42091797 157.68168457 -212.48246094 156.98446289 -213.57617188 156.26611328 C-219.19755163 152.55755848 -224.75894726 148.75962109 -230.32830811 144.97363281 C-244.16601008 135.56830313 -258.0651428 126.26105416 -272 117 C-272.66 125.58 -273.32 134.16 -274 143 C-290.17 143 -306.34 143 -323 143 C-323 100.43 -323 57.86 -323 14 C-307.82 14 -292.64 14 -277 14 C-275.08755386 15.91244614 -275.68475386 18.77230614 -275.5078125 21.33666992 C-274.75204887 31.40060737 -273.46130771 38.80974984 -265.875 46.01953125 C-263.32765396 48.14371619 -260.70468391 50.08019031 -258 52 C-256.99195312 52.72316406 -255.98390625 53.44632813 -254.9453125 54.19140625 C-253.25522498 55.40053329 -251.56300825 56.60631152 -249.8659668 57.80566406 C-244.6106393 61.52740597 -239.45638466 65.37611863 -234.3125 69.25 C-227.71104379 74.22003667 -221.09348406 79.16567625 -214.4375 84.0625 C-213.65729492 84.63653564 -212.87708984 85.21057129 -212.07324219 85.80200195 C-209.71599203 87.53534578 -207.35812154 89.26784187 -205 91 C-192.75418704 99.99516165 -180.55876549 109.05313556 -168.41455078 118.18505859 C-164.5288342 121.10582877 -160.63930408 124.02150974 -156.75 126.9375 C-155.4322731 127.92575649 -154.11456274 128.91403504 -152.796875 129.90234375 C-151.87390625 130.59457031 -150.9509375 131.28679688 -150 132 C-149.42636719 131.63390625 -148.85273438 131.2678125 -148.26171875 130.890625 C-146.98748047 130.07851562 -146.98748047 130.07851562 -145.6875 129.25 C-144.70885986 128.62617432 -143.73021973 128.00234863 -142.72192383 127.35961914 C-140.12811333 125.71084243 -137.5256077 124.07676127 -134.91796875 122.44995117 C-123.79390679 115.4953275 -112.87268528 108.27802043 -102.0229187 100.90402222 C-97.30959751 97.70168094 -92.58880886 94.51039883 -87.8671875 91.3203125 C-86.92928879 90.68663254 -85.99139008 90.05295258 -85.02507019 89.40007019 C-77.65770799 84.42925304 -70.25033808 79.52361774 -62.80874634 74.66482544 C-60.93801139 73.43783542 -59.0750284 72.19982938 -57.21362305 70.95874023 C-50.47110109 66.47960194 -43.66415268 62.17343002 -36.69917297 58.04621887 C-32.77505113 55.70406592 -28.89127852 53.29928999 -25.01028442 50.88650513 C-23.11306825 49.72822901 -21.19860508 48.59766203 -19.26681519 47.49801636 C-8.71384055 41.78904313 -8.71384055 41.78904313 -2.01452637 32.32800293 C-0.60461452 25.5479731 -0.83431206 18.89108513 -1 12 C-0.67 8.04 -0.34 4.08 0 0 Z " fill="#FFFFEF" transform="translate(3540,3275)"/>
<path d="M0 0 C15.18 0 30.36 0 46 0 C47.5322118 1.5322118 47.26742316 3.05800399 47.4296875 5.19140625 C47.50316406 6.05443359 47.57664062 6.91746094 47.65234375 7.80664062 C47.7985364 9.61609525 47.93933639 11.42599526 48.07421875 13.23632812 C48.67484175 20.12313258 49.34115592 26.74576263 54.875 31.4375 C60.39856508 34.19928254 65.66006382 34.1442858 71.74281311 34.13130188 C72.62318833 34.13341759 73.50356356 34.13553331 74.41061682 34.13771313 C77.36107802 34.14370494 80.31149634 34.14271353 83.26196289 34.1418457 C85.37800672 34.14487799 87.49404989 34.14839964 89.61009216 34.15237427 C94.17008092 34.16026231 98.73006186 34.16540802 103.29005623 34.16866493 C110.51683557 34.17458523 117.74356591 34.19113837 124.97032166 34.21000671 C127.44766709 34.21634442 129.92501256 34.22267004 132.40235806 34.22898388 C134.2636648 34.2337326 134.2636648 34.2337326 136.1625737 34.23857725 C152.98378049 34.28057867 169.80496501 34.31358659 186.6262207 34.32592773 C197.97500681 34.33433941 209.32367196 34.35694892 220.67239755 34.3952834 C226.67015175 34.41494812 232.66772553 34.42748086 238.66551399 34.42244911 C244.32174517 34.41776213 249.97763593 34.43182676 255.6337986 34.45946121 C257.69430168 34.46630682 259.75484047 34.46657236 261.81534195 34.45926094 C290.86167389 34.36671726 318.80485613 40.9678957 340 62 C340.845625 62.804375 341.69125 63.60875 342.5625 64.4375 C343.7690625 65.7059375 343.7690625 65.7059375 345 67 C345.65355469 67.65871094 346.30710937 68.31742188 346.98046875 68.99609375 C376.27706918 99.70457854 381.88425866 146.47209974 381.09326172 186.98291016 C380.08827687 219.49495921 373.77759556 256.20630841 351 281 C350.26394531 281.82757812 349.52789063 282.65515625 348.76953125 283.5078125 C330.91486828 302.55666989 305.27426045 310.7801294 280 314 C279.31027446 314.08950141 278.62054892 314.17900282 277.9099226 314.27121639 C267.85533737 315.37268472 257.74732467 315.13205576 247.64770508 315.11352539 C245.48847454 315.11324299 243.32924391 315.11340228 241.17001343 315.1139679 C235.33406559 315.11425381 229.49813848 315.10839042 223.66219544 315.10139394 C217.55366258 315.09512606 211.44512921 315.09455389 205.33659363 315.09336853 C193.78072527 315.09026533 182.22486642 315.08206559 170.66900223 315.07201904 C157.50817656 315.06082648 144.34735042 315.05533954 131.18652117 315.05032361 C104.12434219 315.03988211 77.06217163 315.02230228 50 315 C50.01160156 315.88558594 50.02320312 316.77117187 50.03515625 317.68359375 C50.04417969 318.92238281 50.05320312 320.16117188 50.0625 321.4375 C50.07410156 322.63246094 50.08570312 323.82742188 50.09765625 325.05859375 C49.9529622 332.38011249 49.43001834 339.68968829 49 347 C32.83 347 16.66 347 0 347 C0 302.12 0 257.24 0 211 C15.18 211 30.36 211 46 211 C47.5322118 212.5322118 47.26742316 214.05800399 47.4296875 216.19140625 C47.50316406 217.05443359 47.57664062 217.91746094 47.65234375 218.80664062 C47.7985364 220.61609525 47.93933639 222.42599526 48.07421875 224.23632812 C48.65786862 230.9285169 49.61270728 237.09048699 54 242.4375 C58.02105698 245.57895077 62.25429219 245.14579813 67.11161804 245.14044189 C67.9481876 245.14341302 68.78475716 245.14638414 69.64667732 245.1494453 C72.46066926 245.15814301 75.27461871 245.15964151 78.08862305 245.16113281 C80.10248913 245.16576057 82.11635433 245.17078517 84.13021851 245.17617798 C89.61234495 245.18931608 95.09445914 245.19575076 100.57659888 245.20018864 C104.00549786 245.20311968 107.43439349 245.20722476 110.86329079 245.21169281 C121.60183372 245.22537715 132.34036901 245.2350368 143.07892007 245.2388947 C155.45349912 245.24336503 167.82796714 245.26086121 180.20251244 245.2898953 C189.77726835 245.31157535 199.35199319 245.3216025 208.92677337 245.32293582 C214.63937859 245.32398017 220.35187959 245.32980788 226.06445885 245.34775543 C231.44971363 245.36434352 236.83478708 245.36633992 242.22005844 245.35761642 C244.18550289 245.35685152 246.15095751 245.3611157 248.11637688 245.37107468 C267.91782749 245.4654366 289.55090642 243.97775133 305 230 C316.27338853 217.09406596 321.40729076 198.93086829 322 182 C322.03996094 180.87464844 322.07992187 179.74929688 322.12109375 178.58984375 C322.51950086 155.92751003 318.10198577 133.82082442 302 117 C285.54354077 102.73958854 265.26195111 101.54978646 244.58251953 101.56762695 C242.45239702 101.5585947 240.32227969 101.54826393 238.19216919 101.53674316 C232.44936574 101.50931896 226.70666131 101.49990855 220.96380091 101.49388909 C214.94733462 101.48446728 208.93094119 101.45826094 202.91452026 101.43388367 C191.53939236 101.39031939 180.16427867 101.36171064 168.7890929 101.33856028 C155.83129421 101.31145449 142.87356918 101.26754638 129.91582322 101.22227156 C103.2772555 101.12956959 76.63866467 101.05782285 50 101 C50.01160156 101.88558594 50.02320312 102.77117187 50.03515625 103.68359375 C50.04417969 104.92238281 50.05320312 106.16117188 50.0625 107.4375 C50.07410156 108.63246094 50.08570312 109.82742188 50.09765625 111.05859375 C49.9529622 118.38011249 49.43001834 125.68968829 49 133 C32.83 133 16.66 133 0 133 C0 89.11 0 45.22 0 0 Z " fill="#FFFFEF" transform="translate(3217,1561)"/>
<path d="M0 0 C33 0 66 0 100 0 C100 88.11 100 176.22 100 267 C84.82 267 69.64 267 54 267 C52.6875 255.375 52.6875 255.375 52.2956543 251.74365234 C51.63811688 246.22478651 50.88289988 241.86136058 48 237 C48 236.34 48 235.68 48 235 C42.39106123 232.63069029 37.19733094 232.71011427 31.2180481 232.7215271 C30.13078017 232.7157347 29.04351225 232.7099423 27.92329681 232.70397437 C24.27972642 232.68696786 20.63628265 232.68409725 16.99267578 232.68115234 C14.38098337 232.67185464 11.76929393 232.6616862 9.15760803 232.65071106 C3.53464417 232.6284564 -2.08830155 232.61343235 -7.7112999 232.60334396 C-15.84116618 232.58874745 -23.97096924 232.5632079 -32.10079838 232.53501268 C-45.29146602 232.48956236 -58.48214278 232.45294028 -71.67285156 232.421875 C-84.48504231 232.39168225 -97.29721078 232.35732865 -110.109375 232.31738281 C-110.89935249 232.31492126 -111.68932997 232.31245972 -112.50324617 232.30992357 C-116.46640146 232.29754883 -120.42955649 232.28509233 -124.3927114 232.27259517 C-157.26177738 232.16905372 -190.13086777 232.07984178 -223 232 C-222.98839844 232.88558594 -222.97679688 233.77117187 -222.96484375 234.68359375 C-222.95582031 235.92238281 -222.94679688 237.16117188 -222.9375 238.4375 C-222.92589844 239.63246094 -222.91429688 240.82742188 -222.90234375 242.05859375 C-223.0470378 249.38011249 -223.56998166 256.68968829 -224 264 C-240.17 264 -256.34 264 -273 264 C-273 178.86 -273 93.72 -273 6 C-241.98 6 -210.96 6 -179 6 C-177.74434279 19.81222934 -176.58404858 33.53842341 -175.875 47.375 C-175.78813678 49.00913463 -175.70089763 50.64324933 -175.61328125 52.27734375 C-175.40456553 56.1846821 -175.20077837 60.09224609 -175 64 C-176.11072876 64.029729 -176.11072876 64.029729 -177.24389648 64.06005859 C-180.64208411 64.15609606 -184.0397221 64.26545316 -187.4375 64.375 C-188.60216797 64.4059375 -189.76683594 64.436875 -190.96679688 64.46875 C-202.24063444 64.37677322 -202.24063444 64.37677322 -212 68.875 C-214.24200914 73.63926942 -214.168385 78.34700375 -214.20532227 83.53222656 C-214.22037135 84.84135828 -214.22037135 84.84135828 -214.23572445 86.1769371 C-214.2670719 88.99813953 -214.29186516 91.81935602 -214.31640625 94.640625 C-214.33481315 96.38395644 -214.35365002 98.1272834 -214.3729248 99.87060547 C-214.4413291 106.33035055 -214.50140966 112.79018161 -214.5625 119.25 C-214.706875 133.6875 -214.85125 148.125 -215 163 C-183.65 163 -152.3 163 -120 163 C-120 120.1 -120 77.2 -120 33 C-100.86 33 -81.72 33 -62 33 C-62 75.9 -62 118.8 -62 163 C-27.68 163 6.64 163 42 163 C41.896875 147.469375 41.79375 131.93875 41.6875 115.9375 C41.65015747 108.59359009 41.65015747 108.59359009 41.61206055 101.10131836 C41.57547739 96.69591293 41.57547739 96.69591293 41.5349884 92.2905426 C41.51888494 90.33505391 41.50856547 88.3795122 41.50288391 86.42396545 C41.49311561 83.45415076 41.46474381 80.48502403 41.43237305 77.51538086 C41.43379901 76.65057319 41.43522497 75.78576551 41.43669415 74.89475155 C41.35359405 69.5401612 40.54648781 65.74234524 38 61 C33.92607311 58.32658662 29.15537377 58.65577939 24.41796875 58.5859375 C23.60378983 58.56657135 22.7896109 58.5472052 21.95075989 58.5272522 C19.36311148 58.46771248 16.77541797 58.42117417 14.1875 58.375 C12.42771551 58.3367966 10.66794926 58.2977435 8.90820312 58.2578125 C4.60561766 58.16203218 0.3029447 58.07790715 -4 58 C-3.51273605 44.94645527 -2.85307426 31.9095138 -2 18.875 C-1.9170166 17.57739746 -1.8340332 16.27979492 -1.74853516 14.94287109 C-1.66651855 13.72164551 -1.58450195 12.50041992 -1.5 11.2421875 C-1.4278125 10.1579248 -1.355625 9.07366211 -1.28125 7.95654297 C-1 5 -1 5 0 0 Z " fill="#FFFFEF" transform="translate(3490,781)"/>
<path d="M0 0 C0.85980469 0.70898438 1.71960937 1.41796875 2.60546875 2.1484375 C31.4346324 26.91023077 43.88455037 64.95904239 46.81738281 101.84011841 C47.50595774 113.75474306 47.19468158 125.76239139 47.125 137.6875 C47.08375 147.690625 47.0425 157.69375 47 168 C73.4 168 99.8 168 127 168 C127.33 155.13 127.66 142.26 128 129 C128.33 124.05 128.66 119.1 129 114 C144.84 114 160.68 114 177 114 C177 166.14 177 218.28 177 272 C161.82 272 146.64 272 131 272 C129.6875 260.375 129.6875 260.375 129.2956543 256.74365234 C128.63811688 251.22478651 127.88289988 246.86136058 125 242 C125 241.34 125 240.68 125 240 C119.39106123 237.63069029 114.19733094 237.71011427 108.2180481 237.7215271 C107.13078017 237.7157347 106.04351225 237.7099423 104.92329681 237.70397437 C101.27972642 237.68696786 97.63628265 237.68409725 93.99267578 237.68115234 C91.38098337 237.67185464 88.76929393 237.6616862 86.15760803 237.65071106 C80.53464417 237.6284564 74.91169845 237.61343235 69.2887001 237.60334396 C61.15883382 237.58874745 53.02903076 237.5632079 44.89920162 237.53501268 C31.70853398 237.48956236 18.51785722 237.45294028 5.32714844 237.421875 C-7.48504231 237.39168225 -20.29721078 237.35732865 -33.109375 237.31738281 C-33.89935249 237.31492126 -34.68932997 237.31245972 -35.50324617 237.30992357 C-39.46640146 237.29754883 -43.42955649 237.28509233 -47.3927114 237.27259517 C-80.26177738 237.16905372 -113.13086777 237.07984178 -146 237 C-145.98839844 237.88558594 -145.97679688 238.77117188 -145.96484375 239.68359375 C-145.95582031 240.92238281 -145.94679688 242.16117188 -145.9375 243.4375 C-145.92589844 244.63246094 -145.91429688 245.82742188 -145.90234375 247.05859375 C-146.0470378 254.38011249 -146.56998166 261.68968829 -147 269 C-163.17 269 -179.34 269 -196 269 C-196.06803842 246.7622534 -196.12316736 224.52459266 -196.15543652 202.28676796 C-196.17082594 191.95855577 -196.19176147 181.63041342 -196.22631836 171.30224609 C-196.25646597 162.28750854 -196.27563236 153.27282164 -196.28226548 144.25803506 C-196.28613537 139.49631683 -196.29505897 134.73474332 -196.31719017 129.97307205 C-196.52547347 83.28948045 -193.56700744 37.85748259 -159.515625 2.4140625 C-143.45280058 -13.03096098 -122.84737005 -21.01035989 -101 -24 C-100.34338379 -24.0928125 -99.68676758 -24.185625 -99.01025391 -24.28125 C-64.58641549 -28.68951652 -27.12426061 -22.84561458 0 0 Z M-123 61 C-146.80164396 87.8334123 -141 137.59590444 -141 168 C-97.11 168 -53.22 168 -8 168 C-5.17686848 111.23637563 -5.17686848 111.23637563 -28.6875 61.8125 C-39.93052204 51.15101358 -54.73168361 46.59723006 -70 46 C-71.10601563 45.94005859 -71.10601563 45.94005859 -72.234375 45.87890625 C-90.0945288 45.36947233 -109.56019342 48.38077567 -123 61 Z " fill="#FFFFEF" transform="translate(3413,2916)"/>
<path d="M0 0 C0.66 0.51691406 1.32 1.03382812 2 1.56640625 C29.08168813 23.35187715 39.64699704 60.53914872 43.40234375 93.53515625 C47.2353125 137.58804363 40.91720687 186.16558627 21 226 C-8.7 226 -38.4 226 -69 226 C-70.32 206.86 -71.64 187.72 -73 168 C-54 167.625 -54 167.625 -48.05078125 167.52197266 C-46.47133793 167.48672287 -44.89190949 167.45079685 -43.3125 167.4140625 C-42.51134766 167.40270264 -41.71019531 167.39134277 -40.88476562 167.37963867 C-31.6533635 167.16882046 -31.6533635 167.16882046 -23.75 163 C-16.15049653 149.97227976 -15.63773068 135.38099907 -15.68432617 120.64819336 C-15.68749412 118.5663641 -15.66386405 116.4859533 -15.63867188 114.40429688 C-15.55045731 95.65973391 -18.97926926 76.28989944 -32 62 C-42.44954913 52.94623902 -56.58200514 49.40954992 -70.18359375 49.7578125 C-82.16131237 50.78779663 -92.25125408 55.24816262 -100.1875 64.4375 C-112.90871956 81.67605059 -118.54727111 103.19621708 -124.5 123.4375 C-132.97558631 152.24251736 -142.14402982 177.77379358 -162 201 C-162.77537109 201.92039062 -162.77537109 201.92039062 -163.56640625 202.859375 C-177.81675887 218.43118889 -200.16425247 225.97027716 -220.72021484 227.22753906 C-236.68993613 227.92342691 -252.61928096 227.80203568 -268 223 C-269.16789062 222.63777344 -270.33578125 222.27554688 -271.5390625 221.90234375 C-283.92268539 217.54295383 -295.19917712 210.69844561 -305 202 C-305.66128906 201.42121094 -306.32257812 200.84242188 -307.00390625 200.24609375 C-318.1194302 189.84914913 -325.86260774 176.78272541 -332 163 C-332.70576172 161.453125 -332.70576172 161.453125 -333.42578125 159.875 C-355.93383189 106.35740591 -341.45711043 42.14277608 -321 -9 C-292.95 -9 -264.9 -9 -236 -9 C-235.26706244 -6.06824977 -234.82000274 -3.72584174 -234.61108398 -0.77319336 C-234.55109726 0.05189224 -234.49111053 0.87697784 -234.42930603 1.72706604 C-234.36884598 2.61248581 -234.30838593 3.49790558 -234.24609375 4.41015625 C-234.18092056 5.33283798 -234.11574738 6.25551971 -234.04859924 7.2061615 C-233.91156658 9.16034803 -233.77635268 11.11466283 -233.64282227 13.0690918 C-233.43989427 16.02759382 -233.22915609 18.98546491 -233.01757812 21.94335938 C-231.73090437 40.29404141 -231.73090437 40.29404141 -232 49 C-233.0737085 49.01458252 -234.14741699 49.02916504 -235.25366211 49.04418945 C-239.27400416 49.10258472 -243.29381002 49.1798115 -247.3137207 49.26245117 C-249.04670446 49.29550799 -250.7797909 49.32359853 -252.51293945 49.34643555 C-255.0181821 49.38033892 -257.5224998 49.43266728 -260.02734375 49.48828125 C-260.79022202 49.49467117 -261.55310028 49.5010611 -262.33909607 49.50764465 C-268.80457865 49.68056839 -275.37677441 50.72193567 -280.375 55.0625 C-286.32340965 65.81539436 -286.23960966 77.96958772 -286.25 89.9375 C-286.25067474 90.63252625 -286.25134949 91.32755249 -286.25204468 92.04364014 C-286.22259589 111.1093885 -284.10791676 130.20616677 -270.4140625 144.67578125 C-260.75934467 153.80923497 -248.32886532 154.47648232 -235.74609375 154.2734375 C-224.11695048 153.81183661 -214.38757194 147.77447984 -206.375 139.5625 C-195.59342068 125.93419364 -191.39457274 108.51202515 -186.5 92.1875 C-175.18319459 54.61333658 -159.72721002 8.71875413 -123.515625 -12.21875 C-112.85663177 -17.61930657 -101.79174542 -21.0347091 -90 -23 C-89.21109375 -23.13148437 -88.4221875 -23.26296875 -87.609375 -23.3984375 C-56.45863852 -27.42842788 -23.97002686 -20.93096988 0 0 Z " fill="#FFFFEF" transform="translate(3554,2029)"/>
<path d="M0 0 C3.77016416 1.25672139 4.00711403 2.29562331 5.86328125 5.72265625 C6.41298584 6.72353271 6.96269043 7.72440918 7.52905273 8.75561523 C8.11759033 9.84688721 8.70612793 10.93815918 9.3125 12.0625 C10.5788684 14.36821047 11.84714539 16.67287356 13.1171875 18.9765625 C13.44071701 19.5653569 13.76424652 20.15415131 14.09757996 20.76078796 C17.28123823 26.54346431 20.59445875 32.24595085 23.9375 37.9375 C25.10437927 39.92826081 26.27104387 41.91914747 27.4375 43.91015625 C28.02144531 44.9067627 28.60539062 45.90336914 29.20703125 46.93017578 C32.30437075 52.23327312 35.37104713 57.55400146 38.4375 62.875 C39.36912964 64.49088013 39.36912964 64.49088013 40.31958008 66.1394043 C43.49051155 71.6408535 46.65823667 77.14413881 49.82421875 82.6484375 C50.45408691 83.74212646 51.08395508 84.83581543 51.73291016 85.96264648 C52.98346414 88.13538318 54.23187597 90.30935438 55.47802734 92.48461914 C58.54490504 97.82131216 61.66415705 103.11287158 64.90234375 108.34765625 C65.51835449 109.35344727 66.13436523 110.35923828 66.76904297 111.39550781 C67.93616727 113.29379275 69.11809488 115.18308146 70.31689453 117.06152344 C70.8323584 117.90360352 71.34782227 118.74568359 71.87890625 119.61328125 C72.3385376 120.34329346 72.79816895 121.07330566 73.27172852 121.82543945 C74 124 74 124 73.32568359 126.55834961 C72.03881631 128.92850793 70.81403728 130.5596018 68.91015625 132.453125 C68.29640137 133.06776611 67.68264648 133.68240723 67.05029297 134.31567383 C66.39432129 134.95400146 65.73834961 135.5923291 65.0625 136.25 C64.38590332 136.91604248 63.70930664 137.58208496 63.01220703 138.26831055 C57.60439841 143.53468417 51.97533012 148.38581241 46 153 C44.99710938 153.80824219 43.99421875 154.61648437 42.9609375 155.44921875 C35.06960659 161.76276895 26.8139183 167.0700457 18 172 C17.23187988 172.4345752 16.46375977 172.86915039 15.67236328 173.31689453 C-5.36824555 185.12261784 -27.38357128 193.1113137 -51 198 C-52.25224365 198.26683594 -52.25224365 198.26683594 -53.52978516 198.5390625 C-70.54728444 201.98980466 -88.03705331 201.34772986 -105.31640625 201.203125 C-106.11760895 201.19872406 -106.91881165 201.19432312 -107.74429321 201.18978882 C-111.61186445 201.14104119 -115.2395039 200.93625424 -119 200 C-115.15618294 192.09464461 -111.04462732 184.43491929 -106.5625 176.875 C-105.32231764 174.76597714 -104.08275562 172.65658939 -102.84375 170.546875 C-101.89242187 168.92942383 -101.89242187 168.92942383 -100.921875 167.27929688 C-97.77515892 161.91005267 -94.66841381 156.51791809 -91.5625 151.125 C-90.62966187 149.50634033 -90.62966187 149.50634033 -89.67797852 147.85498047 C-88.41550269 145.66417049 -87.15321444 143.4732524 -85.89111328 141.28222656 C-82.14348395 134.77782059 -78.39095039 128.27624205 -74.63842773 121.7746582 C-70.7758042 115.08143294 -66.91990976 108.38438073 -63.06787109 101.68505859 C-61.18133768 98.41029451 -59.2868942 95.14022754 -57.390625 91.87109375 C-55.3059467 88.27624109 -53.25089716 84.66863045 -51.234375 81.03515625 C-50.44809859 79.64833434 -49.66165687 78.26160613 -48.875 76.875 C-48.54516113 76.25923096 -48.21532227 75.64346191 -47.87548828 75.0090332 C-46.9296875 73.3671875 -46.9296875 73.3671875 -45 71 C-42.2578125 70.6328125 -42.2578125 70.6328125 -40 71 C-39.75636719 70.15953125 -39.51273438 69.3190625 -39.26171875 68.453125 C-37.85121373 64.59279547 -35.94027368 61.24176393 -33.8125 57.75 C-32.90755681 56.23905751 -32.00400264 54.72728256 -31.1015625 53.21484375 C-30.3595459 51.97323486 -30.3595459 51.97323486 -29.60253906 50.70654297 C-26.58130157 45.60394716 -23.64110253 40.45443285 -20.6875 35.3125 C-13.88301232 23.48714099 -6.97189544 11.72732322 0 0 Z " fill="#EFEFEF" transform="translate(3501,2584)"/>
<path d="M0 0 C0.8012027 0.00440094 1.6024054 0.00880188 2.42788696 0.01333618 C6.2954582 0.06208381 9.92309765 0.26687076 13.68359375 1.203125 C9.83977669 9.10848039 5.72822107 16.76820571 1.24609375 24.328125 C0.00591139 26.43714786 -1.23365063 28.54653561 -2.47265625 30.65625 C-3.42398438 32.27370117 -3.42398438 32.27370117 -4.39453125 33.92382812 C-7.54124733 39.29307233 -10.64799244 44.68520691 -13.75390625 50.078125 C-14.37579834 51.15723145 -14.99769043 52.23633789 -15.63842773 53.34814453 C-16.90090356 55.53895451 -18.16319181 57.7298726 -19.42529297 59.92089844 C-23.1729223 66.42530441 -26.92545586 72.92688295 -30.67797852 79.4284668 C-34.54060205 86.12169206 -38.39649649 92.81874427 -42.24853516 99.51806641 C-44.13506857 102.79283049 -46.02951205 106.06289746 -47.92578125 109.33203125 C-50.01045955 112.92688391 -52.06550909 116.53449455 -54.08203125 120.16796875 C-54.86830766 121.55479066 -55.65474938 122.94151887 -56.44140625 124.328125 C-56.77124512 124.94389404 -57.10108398 125.55966309 -57.44091797 126.1940918 C-58.38671875 127.8359375 -58.38671875 127.8359375 -60.31640625 130.203125 C-63.05859375 130.5703125 -63.05859375 130.5703125 -65.31640625 130.203125 C-65.56003906 131.04359375 -65.80367187 131.8840625 -66.0546875 132.75 C-67.46519252 136.61032953 -69.37613257 139.96136107 -71.50390625 143.453125 C-72.40884944 144.96406749 -73.31240361 146.47584244 -74.21484375 147.98828125 C-74.70952148 148.81602051 -75.20419922 149.64375977 -75.71386719 150.49658203 C-78.73510468 155.59917784 -81.67530372 160.74869215 -84.62890625 165.890625 C-91.43339393 177.71598401 -98.34451081 189.47580178 -105.31640625 201.203125 C-109.08657041 199.94640361 -109.32352028 198.90750169 -111.1796875 195.48046875 C-111.72939209 194.47959229 -112.27909668 193.47871582 -112.84545898 192.44750977 C-113.43399658 191.35623779 -114.02253418 190.26496582 -114.62890625 189.140625 C-115.89527465 186.83491453 -117.16355164 184.53025144 -118.43359375 182.2265625 C-118.91888802 181.3433709 -118.91888802 181.3433709 -119.41398621 180.44233704 C-122.59764448 174.65966069 -125.910865 168.95717415 -129.25390625 163.265625 C-130.42078552 161.27486419 -131.58745012 159.28397753 -132.75390625 157.29296875 C-133.33785156 156.2963623 -133.92179687 155.29975586 -134.5234375 154.27294922 C-137.620777 148.96985188 -140.68745338 143.64912354 -143.75390625 138.328125 C-144.37499268 137.25087158 -144.9960791 136.17361816 -145.63598633 135.0637207 C-148.8069178 129.5622715 -151.97464292 124.05898619 -155.140625 118.5546875 C-155.77049316 117.46099854 -156.40036133 116.36730957 -157.04931641 115.24047852 C-158.29987039 113.06774182 -159.54828222 110.89377062 -160.79443359 108.71850586 C-163.86131129 103.38181284 -166.9805633 98.09025342 -170.21875 92.85546875 C-170.83476074 91.84967773 -171.45077148 90.84388672 -172.08544922 89.80761719 C-173.25257352 87.90933225 -174.43450113 86.02004354 -175.63330078 84.14160156 C-176.14876465 83.29952148 -176.66422852 82.45744141 -177.1953125 81.58984375 C-177.88475952 80.49482544 -177.88475952 80.49482544 -178.58813477 79.37768555 C-179.31640625 77.203125 -179.31640625 77.203125 -178.64208984 74.64477539 C-177.35522256 72.27461707 -176.13044353 70.6435232 -174.2265625 68.75 C-173.61280762 68.13535889 -172.99905273 67.52071777 -172.36669922 66.88745117 C-171.71072754 66.24912354 -171.05475586 65.6107959 -170.37890625 64.953125 C-169.70230957 64.28708252 -169.02571289 63.62104004 -168.32861328 62.93481445 C-162.92080466 57.66844083 -157.29173637 52.81731259 -151.31640625 48.203125 C-150.31351563 47.39488281 -149.310625 46.58664063 -148.27734375 45.75390625 C-140.38601284 39.44035605 -132.13032455 34.1330793 -123.31640625 29.203125 C-122.54828613 28.7685498 -121.78016602 28.33397461 -120.98876953 27.88623047 C-99.9481607 16.08050716 -77.93283497 8.0918113 -54.31640625 3.203125 C-53.48157715 3.02523437 -52.64674805 2.84734375 -51.78662109 2.6640625 C-34.76912181 -0.78667966 -17.27935294 -0.14460486 0 0 Z " fill="#EFEFEF" transform="translate(3419.31640625,2339.796875)"/>
<path d="M0 0 C48.18 0 96.36 0 146 0 C151.80215781 18.56690501 151.80215781 18.56690501 153.1875 25.5 C153.33896484 26.19996094 153.49042969 26.89992188 153.64648438 27.62109375 C156.64222054 42.12810547 157.37437401 56.4252091 157.3125 71.1875 C157.31067719 72.09141479 157.30885437 72.99532959 157.30697632 73.92663574 C157.26201496 87.17134358 156.80845086 100.01367899 154 113 C153.83371094 113.82661133 153.66742187 114.65322266 153.49609375 115.50488281 C147.50786687 144.99135555 135.81056124 183.01428366 113 204 C105.44759432 191.59686222 98.21009906 179.01541528 90.97167969 166.42724609 C87.81974768 160.94844203 84.65959203 155.47438887 81.5 150 C80.2499577 147.83335774 78.99995776 145.66669103 77.75 143.5 C77.13125 142.4275 76.5125 141.355 75.875 140.25 C74 137 72.125 133.75 70.25 130.5 C69.63044434 129.42613037 69.01088867 128.35226074 68.37255859 127.24584961 C67.13060256 125.09307184 65.8887396 122.94024037 64.64697266 120.78735352 C61.74353087 115.75383085 58.839215 110.72081952 55.93145752 105.68978882 C54.90654597 103.91637392 53.88193877 102.14278354 52.85742188 100.36914062 C51.57547262 98.15004227 50.29295893 95.93126984 49.00976562 93.71289062 C47.86189139 91.72535591 46.71870859 89.73510161 45.58105469 87.74169922 C44.55293641 85.95884432 43.50251 84.18860647 42.42675781 82.43408203 C41.95850586 81.65274902 41.49025391 80.87141602 41.0078125 80.06640625 C40.59418457 79.39681885 40.18055664 78.72723145 39.75439453 78.03735352 C39 76 39 76 39.54272461 73.57910156 C40.16586042 70.06452244 39.12271185 68.70062452 37.30859375 65.66796875 C36.70047852 64.63422119 36.09236328 63.60047363 35.46582031 62.53540039 C34.79647461 61.43059326 34.12712891 60.32578613 33.4375 59.1875 C32.74823452 58.02616267 32.06042846 56.86395802 31.37402344 55.70092773 C29.95731798 53.30453296 28.53323828 50.91277205 27.10302734 48.52441406 C23.93769438 43.23165722 20.84856974 37.89450804 17.75 32.5625 C16.60730372 30.6025538 15.46408277 28.64291339 14.3203125 26.68359375 C13.49515137 25.26989502 13.49515137 25.26989502 12.65332031 23.82763672 C10.99925416 20.9987244 9.33972241 18.1730692 7.6796875 15.34765625 C6.66133956 13.60684031 5.64310434 11.86595842 4.625 10.125 C4.15416992 9.32779541 3.68333984 8.53059082 3.19824219 7.70922852 C0 2.22661448 0 2.22661448 0 0 Z " fill="#EFEFEF" transform="translate(3473,2491)"/>
<path d="M0 0 C2.65565787 2.39969682 4.27998553 4.96444189 6.046875 8.06640625 C6.63662109 9.09572266 7.22636719 10.12503906 7.83398438 11.18554688 C8.78241211 12.85713867 8.78241211 12.85713867 9.75 14.5625 C10.41941347 15.73401461 11.08934426 16.90523376 11.75976562 18.07617188 C13.15239997 20.50943834 14.54279747 22.94396232 15.93164062 25.37939453 C19.10029766 30.93157593 22.30179441 36.46480662 25.5 42 C26.75015525 44.16657709 28.00015473 46.33324407 29.25 48.5 C29.86875 49.5725 30.4875 50.645 31.125 51.75 C33 55 34.875 58.25 36.75 61.5 C37.3689917 62.57290283 37.9879834 63.64580566 38.62573242 64.7512207 C39.8733474 66.91378583 41.12090616 69.07638339 42.3684082 71.23901367 C46.17062316 77.83021462 49.97465462 84.42036096 53.78125 91.0090332 C55.0397691 93.19000424 56.2963203 95.37211217 57.55078125 97.55541992 C60.54618938 102.76750973 63.56446613 107.96241451 66.64453125 113.125 C67.21147705 114.08623779 67.77842285 115.04747559 68.36254883 116.0378418 C69.42487311 117.83794846 70.4983137 119.63155853 71.5847168 121.41723633 C72.05176025 122.21411865 72.51880371 123.01100098 73 123.83203125 C73.4125 124.52014893 73.825 125.2082666 74.25 125.91723633 C75 128 75 128 74.45678711 130.42724609 C73.83360084 133.93720701 74.87965975 135.30334007 76.69140625 138.33203125 C77.29952148 139.36577881 77.90763672 140.39952637 78.53417969 141.46459961 C79.20352539 142.56940674 79.87287109 143.67421387 80.5625 144.8125 C81.25176548 145.97383733 81.93957154 147.13604198 82.62597656 148.29907227 C84.04268202 150.69546704 85.46676172 153.08722795 86.89697266 155.47558594 C90.06230562 160.76834278 93.15143026 166.10549196 96.25 171.4375 C97.39269628 173.3974462 98.53591723 175.35708661 99.6796875 177.31640625 C100.22979492 178.25887207 100.77990234 179.20133789 101.34667969 180.17236328 C103.00074584 183.0012756 104.66027759 185.8269308 106.3203125 188.65234375 C107.33866044 190.39315969 108.35689566 192.13404158 109.375 193.875 C109.84583008 194.67220459 110.31666016 195.46940918 110.80175781 196.29077148 C114 201.77338552 114 201.77338552 114 204 C65.82 204 17.64 204 -32 204 C-37.80215781 185.43309499 -37.80215781 185.43309499 -39.1875 178.5 C-39.33896484 177.80003906 -39.49042969 177.10007812 -39.64648438 176.37890625 C-42.64222054 161.87189453 -43.37437401 147.5747909 -43.3125 132.8125 C-43.31067719 131.90858521 -43.30885437 131.00467041 -43.30697632 130.07336426 C-43.26201496 116.82865642 -42.80845086 103.98632101 -40 91 C-39.83371094 90.17338867 -39.66742187 89.34677734 -39.49609375 88.49511719 C-33.146856 57.2310002 -20.65638861 24.70953342 0 0 Z " fill="#EFEFEF" transform="translate(3228,2430)"/>
<path d="M0 0 C49.5 0 99 0 150 0 C150.33 1.32 150.66 2.64 151 4 C178.39 4 205.78 4 234 4 C231.36 8.62 228.72 13.24 226 18 C223.51245767 22.44726163 223.51245767 22.44726163 221.03149414 26.89819336 C214.67732596 38.31696603 208.16978573 49.63636596 201.5625 60.91015625 C197.86786651 67.21570485 194.21155188 73.54298913 190.5625 79.875 C189.94648926 80.94355225 189.33047852 82.01210449 188.69580078 83.11303711 C186.12120456 87.5802062 183.54788685 92.04811045 180.97558594 96.51660156 C179.61884742 98.87346291 178.26166779 101.23006924 176.90405273 103.58642578 C175.63453881 105.79006869 174.36576732 107.99413955 173.09790039 110.19873047 C171.95137857 112.18862488 170.80030254 114.17590429 169.64404297 116.16015625 C168.53604722 118.07405684 167.44682773 119.99893568 166.37548828 121.93359375 C165.86099121 122.84238281 165.34649414 123.75117188 164.81640625 124.6875 C164.3685376 125.49574219 163.92066895 126.30398437 163.45922852 127.13671875 C162 129 162 129 160.06420898 129.81640625 C156.41459925 130.14100785 152.98740453 128.9654277 149.5 128 C148.66049805 127.77070801 147.82099609 127.54141602 146.95605469 127.30517578 C101.12185447 114.48829148 59.5178072 88.68012259 30 51 C29.18660156 49.99195312 28.37320313 48.98390625 27.53515625 47.9453125 C18.52480139 36.67104938 11.665109 24.42611668 4.9375 11.6875 C4.44773682 10.76130859 3.95797363 9.83511719 3.45336914 8.88085938 C3.00340576 8.01654297 2.55344238 7.15222656 2.08984375 6.26171875 C1.68628662 5.48787842 1.28272949 4.71403809 0.86694336 3.91674805 C0 2 0 2 0 0 Z " fill="#EFEFEF" transform="translate(3203,2651)"/>
<path d="M0 0 C9.09108121 0.75300673 17.71750966 3.54254515 26.3125 6.4375 C26.96207672 6.65553284 27.61165344 6.87356567 28.28091431 7.09820557 C68.44760582 20.67162076 104.77651251 45.52514814 131 79 C131.81339844 80.00804688 132.62679687 81.01609375 133.46484375 82.0546875 C142.47519861 93.32895062 149.334891 105.57388332 156.0625 118.3125 C156.55226318 119.23869141 157.04202637 120.16488281 157.54663086 121.11914062 C157.99659424 121.98345703 158.44655762 122.84777344 158.91015625 123.73828125 C159.31371338 124.51212158 159.71727051 125.28596191 160.13305664 126.08325195 C161 128 161 128 161 130 C111.5 130 62 130 11 130 C10.67 128.68 10.34 127.36 10 126 C-17.39 126 -44.78 126 -73 126 C-70.36 121.38 -67.72 116.76 -65 112 C-62.51245767 107.55273837 -62.51245767 107.55273837 -60.03149414 103.10180664 C-53.67732596 91.68303397 -47.16978573 80.36363404 -40.5625 69.08984375 C-36.86786651 62.78429515 -33.21155188 56.45701087 -29.5625 50.125 C-28.94648926 49.05644775 -28.33047852 47.98789551 -27.69580078 46.88696289 C-25.12120456 42.4197938 -22.54788685 37.95188955 -19.97558594 33.48339844 C-18.61884742 31.12653709 -17.26166779 28.76993076 -15.90405273 26.41357422 C-14.63453881 24.20993131 -13.36576732 22.00586045 -12.09790039 19.80126953 C-1.62556488 1.62556488 -1.62556488 1.62556488 0 0 Z " fill="#EFEFEF" transform="translate(3451,2344)"/>
</svg>
