<svg xmlns="http://www.w3.org/2000/svg" shape-rendering="geometricPrecision" text-rendering="geometricPrecision" image-rendering="optimizeQuality" fill-rule="evenodd" clip-rule="evenodd" viewBox="0 0 509 512.096"><path fill="#fff" fill-rule="nonzero" d="M146.428 0h216.144c40.221 0 76.807 16.494 103.337 43.006C492.516 69.536 509 106.179 509 146.428v219.24c0 40.165-16.494 76.77-43.024 103.329l-.076.075c-26.606 26.55-63.182 43.024-103.328 43.024H146.428c-40.25 0-76.892-16.484-103.423-43.014l-1.013-1.108C16.077 441.538 0 405.369 0 365.668v-219.24C0 106.15 16.466 69.527 42.996 42.996 69.526 16.466 106.15 0 146.428 0zm234.939 129.272l.274.464h90.016c-3.645-23.671-14.903-44.947-31.179-61.223-19.969-20.016-47.56-32.438-77.906-32.438h-36.983l55.778 93.197zm-41.642.464l-56.053-93.661H160.754l56.725 93.661h122.246zm-164.229 0l-54.85-90.594c-20.035 4.848-37.987 15.206-52.142 29.362-16.267 16.266-27.516 37.542-31.161 61.232h138.153zm297.43 36.074H36.074v199.858c0 29.892 12.054 57.113 31.511 77.035l.928.871c20.016 20.016 47.616 32.448 77.915 32.448h216.144c30.346 0 57.937-12.413 77.896-32.382l.076-.076c19.968-19.959 32.382-47.55 32.382-77.896V165.81zm-260.607 63.211l111.83 72.736a16.752 16.752 0 014.706 4.507c5.103 7.366 3.229 17.498-4.147 22.601l-111.357 65.682c-2.784 2.31-6.373 3.664-10.321 3.664-9.004 0-16.304-7.291-16.304-16.304V242.333h.075c0-3.228.957-6.457 2.917-9.288 5.141-7.376 15.262-9.165 22.601-4.024z"/></svg>